<svg width="23" height="20" viewBox="0 0 23 20" fill="none" xmlns="http://www.w3.org/2000/svg">
<g clip-path="url(#clip0_2601_58)">
<mask id="mask0_2601_58" style="mask-type:luminance" maskUnits="userSpaceOnUse" x="-2" y="-3" width="25" height="24">
<path d="M22.5 -3H-1.5V21H22.5V-3Z" fill="white"/>
</mask>
<g mask="url(#mask0_2601_58)">
<path fill-rule="evenodd" clip-rule="evenodd" d="M6.11974 0.34367C6.25783 0.12944 6.49526 0 6.75013 0H8.0106C8.0251 0 8.0396 0.000420042 8.054 0.00126004C8.2235 0.01109 8.3889 0.0576401 8.5386 0.13768C8.6826 0.21466 8.8089 0.32087 8.9094 0.44943L14.779 7.5856L17.4869 7.5146C17.6801 7.5042 18.2136 7.5 18.362 7.5C19.4548 7.5 20.4184 7.6463 21.1386 7.9632C21.8536 8.2778 22.5001 8.8548 22.5001 9.75C22.5001 10.6456 21.8517 11.2234 21.1374 11.5388C20.4167 11.857 19.4532 12.0047 18.3625 12.0047C18.2125 12.0047 17.6825 12.0005 17.4876 11.9901L14.7799 11.918L8.8966 19.0518C8.7961 19.18 8.67 19.2859 8.5262 19.3626C8.3767 19.4424 8.2117 19.4889 8.0425 19.4987C8.028 19.4996 8.0134 19.5 7.99888 19.5H6.75013C6.49527 19.5 6.25786 19.3706 6.11977 19.1564C5.98168 18.9422 5.96181 18.6725 6.06702 18.4404L9.0893 11.7725L4.55372 11.671L2.89954 13.6762C2.89586 13.6808 2.89197 13.6858 2.8879 13.691C2.80783 13.7929 2.65191 13.9913 2.41098 14.1134C2.14977 14.2458 1.87576 14.25 1.68763 14.25H0.847629C0.755479 14.25 0.283819 14.2389 0.0726888 13.7742C-0.0112812 13.5894 -0.00372121 13.4212 0.00527879 13.3386C0.0140388 13.2583 0.0325389 13.1902 0.0441389 13.151L0.973179 9.8204C0.980009 9.7959 0.988069 9.7718 0.997349 9.7481C0.998649 9.7448 0.998649 9.7411 0.997349 9.7378C0.987979 9.7139 0.979839 9.6896 0.972959 9.6648L0.0442688 6.3217C0.0441388 6.32126 0.0439787 6.32075 0.0438087 6.32018C0.0356187 6.29334 -0.0171711 6.12037 0.0130689 5.92381C0.0331189 5.7935 0.0980887 5.59448 0.285749 5.43724C0.470129 5.28273 0.673319 5.25234 0.800759 5.25234H1.68482C2.07599 5.25234 2.58387 5.40853 2.90355 5.81473L4.52421 7.7858L9.0862 7.7183L6.06707 1.05971C5.96181 0.82759 5.98165 0.55789 6.11974 0.34367ZM8.0149 1.72318L10.8538 7.9843C10.9149 8.1171 10.9412 8.2634 10.9301 8.4093C10.9187 8.5581 10.8689 8.7013 10.7855 8.825C10.702 8.9487 10.5879 9.0485 10.4542 9.1147C10.3324 9.175 10.1983 9.2055 10.0628 9.204L4.3772 9.2881C4.20249 9.2923 4.02918 9.2558 3.87094 9.1815C3.71418 9.1078 3.57654 8.9991 3.46863 8.8638L1.74341 6.76555C1.74304 6.76539 1.74265 6.76522 1.74225 6.76505C1.73653 6.76263 1.72976 6.76026 1.72234 6.75822L2.40966 9.2325C2.52793 9.5627 2.52788 9.9237 2.40951 10.2539L1.71329 12.7499C1.71546 12.7499 1.7176 12.7499 1.7197 12.7498C1.72262 12.7462 1.72566 12.7423 1.72883 12.7384C1.73174 12.7347 1.73469 12.731 1.73768 12.7274L3.50143 10.5894C3.60938 10.4555 3.74641 10.3478 3.90218 10.2747C4.06072 10.2002 4.23436 10.1635 4.40947 10.1674L10.0664 10.2939C10.209 10.2972 10.349 10.3352 10.4737 10.4047C10.5983 10.4742 10.7041 10.5731 10.7818 10.6927C10.8596 10.8124 10.9069 10.9492 10.9198 11.0913C10.9326 11.2334 10.9106 11.3765 10.8556 11.5081C10.8527 11.515 10.8498 11.5219 10.8467 11.5287L8.0279 17.7475L13.8096 10.7369C13.9097 10.6098 14.0244 10.5451 14.0744 10.5191C14.1454 10.4823 14.2102 10.4612 14.2535 10.4491C14.3338 10.4267 14.4289 10.4109 14.5234 10.4109C14.5301 10.4109 14.5367 10.411 14.5434 10.4112L17.5387 10.4909C17.5472 10.4911 17.5556 10.4915 17.5641 10.492C17.6916 10.4997 18.1966 10.5047 18.3625 10.5047C19.3469 10.5047 20.0772 10.3672 20.5316 10.1666C20.9924 9.9631 21.0001 9.7886 21.0001 9.75C21.0001 9.711 20.9932 9.538 20.5345 9.3362C20.0809 9.1366 19.3505 9 18.362 9C18.1958 9 17.6873 9.005 17.5649 9.0126C17.5559 9.0132 17.5469 9.0136 17.5379 9.0138L14.5021 9.0933C14.3547 9.0988 14.2084 9.0653 14.078 8.9958C13.9681 8.9373 13.8731 8.8552 13.7994 8.7559L8.0149 1.72318ZM1.48252 13.5766C1.48272 13.5759 1.48293 13.5752 1.48313 13.5746C1.48213 13.5782 1.48179 13.579 1.48252 13.5766Z" fill="#798A97"/>
</g>
</g>
<defs>
<clipPath id="clip0_2601_58">
<rect width="23" height="20" fill="white"/>
</clipPath>
</defs>
</svg>
