<svg width="13" height="13" viewBox="0 0 13 13" fill="none" xmlns="http://www.w3.org/2000/svg">
<path fill-rule="evenodd" clip-rule="evenodd" d="M0.666748 1.83329C0.666748 1.18896 1.18909 0.666626 1.83341 0.666626H11.1667C11.8111 0.666626 12.3334 1.18897 12.3334 1.83329V3.83329C12.3334 4.29869 12.0609 4.70044 11.6667 4.88769V11.8333C11.6667 12.1094 11.4429 12.3333 11.1667 12.3333H1.83341C1.55727 12.3333 1.33341 12.1094 1.33341 11.8333V4.88769C0.939258 4.70044 0.666748 4.29869 0.666748 3.83329V1.83329ZM2.33341 4.99996V11.3333H10.6667V4.99996H2.33341ZM1.83341 1.66663C1.74137 1.66663 1.66675 1.74125 1.66675 1.83329V3.83329C1.66675 3.92534 1.74137 3.99996 1.83341 3.99996H11.1667C11.2588 3.99996 11.3334 3.92534 11.3334 3.83329V1.83329C11.3334 1.74124 11.2588 1.66663 11.1667 1.66663H1.83341ZM4.66675 7.16663C4.66675 6.89048 4.89061 6.66663 5.16675 6.66663H7.83342C8.10956 6.66663 8.33342 6.89048 8.33342 7.16663C8.33342 7.44277 8.10956 7.66663 7.83342 7.66663H5.16675C4.89061 7.66663 4.66675 7.44277 4.66675 7.16663Z" fill="#0E638C"/>
</svg>
