<svg width="24" height="24" viewBox="0 0 24 24" fill="none" xmlns="http://www.w3.org/2000/svg">
<path opacity="0.15" d="M19 20V9H5V20H19Z" fill="#FFB229"/>
<path fill-rule="evenodd" clip-rule="evenodd" d="M4 5.75C4 4.78351 4.78351 4 5.75 4H19.75C20.7165 4 21.5 4.78352 21.5 5.75V8.75C21.5 9.44809 21.0912 10.0507 20.5 10.3316V20.75C20.5 21.1642 20.1642 21.5 19.75 21.5H5.75C5.33579 21.5 5 21.1642 5 20.75V10.3316C4.40876 10.0507 4 9.44809 4 8.75V5.75ZM6.5 10.5V20H19V10.5H6.5ZM5.75 5.5C5.61193 5.5 5.5 5.61193 5.5 5.75V8.75C5.5 8.88807 5.61193 9 5.75 9H19.75C19.8881 9 20 8.88808 20 8.75V5.75C20 5.61192 19.8881 5.5 19.75 5.5H5.75ZM10 13.75C10 13.3358 10.3358 13 10.75 13H14.75C15.1642 13 15.5 13.3358 15.5 13.75C15.5 14.1642 15.1642 14.5 14.75 14.5H10.75C10.3358 14.5 10 14.1642 10 13.75Z" fill="#FFB229"/>
</svg>
