<svg width="16" height="16" viewBox="0 0 16 16" fill="none" xmlns="http://www.w3.org/2000/svg">
<path opacity="0.15" d="M8.00002 2C5.79088 2 4.00002 3.79086 4.00002 6C4.00002 8.66667 2.66669 11.3333 2.66669 11.3333H13.3334C13.3334 11.3333 12 8.66667 12 6C12 3.79086 10.2092 2 8.00002 2Z" fill="#0E638C"/>
<path fill-rule="evenodd" clip-rule="evenodd" d="M8.5 3C6.59747 3 5 4.59748 5 6.5C5 7.90896 4.64932 9.29982 4.30767 10.3248C4.17704 10.7167 4.04638 11.059 3.93438 11.3333H13.1122C12.9911 10.9959 12.84 10.5553 12.6888 10.0637C12.3546 8.97752 12 7.58148 12 6.5C12 4.59748 10.4025 3 8.5 3ZM14.2976 11.6476L14.2969 11.646L14.2944 11.6396L14.2838 11.6129C14.2745 11.5891 14.2606 11.5534 14.2429 11.5071C14.2073 11.4145 14.1563 11.2792 14.0949 11.1104C13.972 10.7724 13.8082 10.3014 13.6446 9.76962C13.3121 8.68915 13 7.41852 13 6.5C13 4.04519 10.9548 2 8.5 2C6.04519 2 4 4.04519 4 6.5C4 7.75771 3.684 9.03351 3.35899 10.0086C3.19748 10.4931 3.03603 10.8966 2.91543 11.178C2.85518 11.3186 2.80528 11.4284 2.77086 11.5021C2.75366 11.539 2.74035 11.5668 2.73156 11.585L2.72186 11.6048L2.71971 11.6092C2.71969 11.6092 2.7194 11.6098 2.71938 11.6099C2.71937 11.6099 2.71938 11.6099 2.71938 11.6099C2.642 11.7648 2.65028 11.9489 2.74134 12.0962C2.83244 12.2436 2.99338 12.3333 3.16666 12.3333H6V12.5C6 12.8283 6.06467 13.1534 6.19029 13.4567C6.31593 13.76 6.50009 14.0356 6.73222 14.2677C6.96436 14.4999 7.23997 14.6841 7.54329 14.8097C7.84662 14.9353 8.17169 15 8.5 15C8.82831 15 9.15338 14.9353 9.4567 14.8097C9.76003 14.6841 10.0356 14.4999 10.2678 14.2678C10.4999 14.0356 10.684 13.7601 10.8097 13.4568C10.9353 13.1534 11 12.8283 11 12.5V12.3333H13.8333C13.9992 12.3333 14.1543 12.251 14.2474 12.1136C14.3404 11.9763 14.3592 11.8017 14.2976 11.6476ZM10 12.3333H7V12.5C7 12.697 7.03879 12.892 7.11416 13.074C7.18954 13.256 7.30003 13.4213 7.43933 13.5606C7.43932 13.5606 7.43933 13.5606 7.43933 13.5606M7.43933 13.5606C7.57867 13.7 7.74404 13.8105 7.9259 13.8858C8.10789 13.9612 8.303 14 8.5 14C8.697 14 8.89204 13.9612 9.07403 13.8858C9.25591 13.8105 9.42131 13.7 9.56064 13.5606C9.69997 13.4213 9.81046 13.256 9.88578 13.0741C9.96117 12.8921 10 12.697 10 12.5V12.3333" fill="#0E638C"/>
</svg>
