<svg width="16" height="16" viewBox="0 0 16 16" fill="none" xmlns="http://www.w3.org/2000/svg">
<g clip-path="url(#clip0_1277_4726)">
<path opacity="0.15" d="M8.8 1.59998C11.0365 1.59998 12.1548 1.59998 13.0369 1.96535C14.213 2.45253 15.1474 3.38696 15.6346 4.5631C16 5.4452 16 6.56346 16 8.79998C16 11.0365 16 12.1548 15.6346 13.0369C15.1474 14.213 14.213 15.1474 13.0369 15.6346C12.1548 16 11.0365 16 8.8 16H7.2C4.96348 16 3.84522 16 2.96312 15.6346C1.78698 15.1474 0.852552 14.213 0.365378 13.0369C0 12.1548 0 11.0365 0 8.79998C0 6.56346 0 5.4452 0.365378 4.5631C0.852552 3.38696 1.78698 2.45253 2.96312 1.96535C3.84522 1.59998 4.96348 1.59998 7.2 1.59998H8.8Z" fill="#354753"/>
<path fill-rule="evenodd" clip-rule="evenodd" d="M11.3446 2.84286C10.7256 2.80062 9.93464 2.79998 8.8 2.79998H7.2C6.06532 2.79998 5.27441 2.80062 4.65534 2.84286C4.04705 2.88437 3.6928 2.96198 3.42234 3.07401C2.54024 3.43938 1.83941 4.14022 1.47403 5.02231C1.36201 5.29278 1.28439 5.64702 1.24289 6.25531C1.20065 6.87438 1.2 7.6653 1.2 8.79998C1.2 9.93462 1.20065 10.7256 1.24289 11.3446C1.28439 11.9529 1.36201 12.3072 1.47403 12.5777C1.83941 13.4597 2.54024 14.1605 3.42234 14.526C3.6928 14.638 4.04705 14.7156 4.65534 14.7571C5.27441 14.7993 6.06532 14.8 7.2 14.8H8.8C9.93464 14.8 10.7256 14.7993 11.3446 14.7571C11.953 14.7156 12.3072 14.638 12.5777 14.526C13.4598 14.1605 14.1606 13.4597 14.526 12.5777C14.638 12.3072 14.7156 11.9529 14.7571 11.3446C14.7994 10.7256 14.8 9.93462 14.8 8.79998C14.8 7.6653 14.7994 6.87438 14.7571 6.25531C14.7156 5.64702 14.638 5.29278 14.526 5.02231C14.1606 4.14022 13.4598 3.43938 12.5777 3.07401C12.3072 2.96198 11.953 2.88437 11.3446 2.84286ZM13.0369 1.96535C12.1548 1.59998 11.0365 1.59998 8.8 1.59998H7.2C4.96348 1.59998 3.84522 1.59998 2.96312 1.96535C1.78698 2.45253 0.852552 3.38696 0.365378 4.5631C0 5.4452 0 6.56346 0 8.79998C0 11.0365 0 12.1548 0.365378 13.0369C0.852552 14.213 1.78698 15.1474 2.96312 15.6346C3.84522 16 4.96348 16 7.2 16H8.8C11.0365 16 12.1548 16 13.0369 15.6346C14.213 15.1474 15.1474 14.213 15.6346 13.0369C16 12.1548 16 11.0365 16 8.79998C16 6.56346 16 5.4452 15.6346 4.5631C15.1474 3.38696 14.213 2.45253 13.0369 1.96535Z" fill="#354753"/>
<path fill-rule="evenodd" clip-rule="evenodd" d="M2.3999 5.79995C2.3999 5.46858 2.66853 5.19995 2.9999 5.19995H12.9999C13.3313 5.19995 13.5999 5.46858 13.5999 5.79995C13.5999 6.13132 13.3313 6.39995 12.9999 6.39995H2.9999C2.66853 6.39995 2.3999 6.13132 2.3999 5.79995Z" fill="#354753"/>
<path d="M5.2 9.00002C5.2 8.66866 4.93137 8.40002 4.6 8.40002C4.26863 8.40002 4 8.66866 4 9.00002V9.40002C4 9.73138 4.26863 10 4.6 10C4.93137 10 5.2 9.73138 5.2 9.40002V9.00002Z" fill="#354753"/>
<path d="M5.2 11.8C5.2 11.4686 4.93137 11.2 4.6 11.2C4.26863 11.2 4 11.4686 4 11.8V12.2C4 12.5313 4.26863 12.8 4.6 12.8C4.93137 12.8 5.2 12.5313 5.2 12.2V11.8Z" fill="#354753"/>
<path d="M7.9999 8.40002C8.33126 8.40002 8.5999 8.66866 8.5999 9.00002V9.40002C8.5999 9.73138 8.33126 10 7.9999 10C7.66853 10 7.3999 9.73138 7.3999 9.40002V9.00002C7.3999 8.66866 7.66853 8.40002 7.9999 8.40002Z" fill="#354753"/>
<path d="M8.5999 11.8C8.5999 11.4686 8.33126 11.2 7.9999 11.2C7.66853 11.2 7.3999 11.4686 7.3999 11.8V12.2C7.3999 12.5313 7.66853 12.8 7.9999 12.8C8.33126 12.8 8.5999 12.5313 8.5999 12.2V11.8Z" fill="#354753"/>
<path d="M11.3998 8.40002C11.7312 8.40002 11.9998 8.66866 11.9998 9.00002V9.40002C11.9998 9.73138 11.7312 10 11.3998 10C11.0684 10 10.7998 9.73138 10.7998 9.40002V9.00002C10.7998 8.66866 11.0684 8.40002 11.3998 8.40002Z" fill="#354753"/>
<path d="M11.9998 11.8C11.9998 11.4686 11.7312 11.2 11.3998 11.2C11.0684 11.2 10.7998 11.4686 10.7998 11.8V12.2C10.7998 12.5313 11.0684 12.8 11.3998 12.8C11.7312 12.8 11.9998 12.5313 11.9998 12.2V11.8Z" fill="#354753"/>
<path fill-rule="evenodd" clip-rule="evenodd" d="M5.9998 0.6C5.9998 0.268629 5.73117 0 5.3998 0C5.06844 0 4.7998 0.268629 4.7998 0.6V1.8C4.7998 2.13137 5.06844 2.4 5.3998 2.4C5.73117 2.4 5.9998 2.13137 5.9998 1.8V0.6ZM10.7998 0.6C10.7998 0.268629 10.5312 0 10.1998 0C9.86844 0 9.5998 0.268629 9.5998 0.6V1.8C9.5998 2.13137 9.86844 2.4 10.1998 2.4C10.5312 2.4 10.7998 2.13137 10.7998 1.8V0.6Z" fill="#354753"/>
</g>
<defs>
<clipPath id="clip0_1277_4726">
<rect width="16" height="16" fill="white"/>
</clipPath>
</defs>
</svg>
