<svg width="17" height="16" viewBox="0 0 17 16" fill="none" xmlns="http://www.w3.org/2000/svg">
<g clip-path="url(#clip0_1277_4718)">
<path opacity="0.15" d="M9.3 1.59998C11.5365 1.59998 12.6548 1.59998 13.5369 1.96535C14.713 2.45253 15.6474 3.38696 16.1346 4.5631C16.5 5.4452 16.5 6.56346 16.5 8.79998C16.5 11.0365 16.5 12.1548 16.1346 13.0369C15.6474 14.213 14.713 15.1474 13.5369 15.6346C12.6548 16 11.5365 16 9.3 16H7.7C5.46348 16 4.34522 16 3.46312 15.6346C2.28698 15.1474 1.35255 14.213 0.865378 13.0369C0.5 12.1548 0.5 11.0365 0.5 8.79998C0.5 6.56346 0.5 5.4452 0.865378 4.5631C1.35255 3.38696 2.28698 2.45253 3.46312 1.96535C4.34522 1.59998 5.46348 1.59998 7.7 1.59998H9.3Z" fill="#0E638C"/>
<path fill-rule="evenodd" clip-rule="evenodd" d="M11.8446 2.84286C11.2256 2.80062 10.4346 2.79998 9.3 2.79998H7.7C6.56532 2.79998 5.77441 2.80062 5.15534 2.84286C4.54705 2.88437 4.1928 2.96198 3.92234 3.07401C3.04024 3.43938 2.33941 4.14022 1.97403 5.02231C1.86201 5.29278 1.78439 5.64702 1.74289 6.25531C1.70065 6.87438 1.7 7.6653 1.7 8.79998C1.7 9.93462 1.70065 10.7256 1.74289 11.3446C1.78439 11.9529 1.86201 12.3072 1.97403 12.5777C2.33941 13.4597 3.04024 14.1605 3.92234 14.526C4.1928 14.638 4.54705 14.7156 5.15534 14.7571C5.77441 14.7993 6.56532 14.8 7.7 14.8H9.3C10.4346 14.8 11.2256 14.7993 11.8446 14.7571C12.453 14.7156 12.8072 14.638 13.0777 14.526C13.9598 14.1605 14.6606 13.4597 15.026 12.5777C15.138 12.3072 15.2156 11.9529 15.2571 11.3446C15.2994 10.7256 15.3 9.93462 15.3 8.79998C15.3 7.6653 15.2994 6.87438 15.2571 6.25531C15.2156 5.64702 15.138 5.29278 15.026 5.02231C14.6606 4.14022 13.9598 3.43938 13.0777 3.07401C12.8072 2.96198 12.453 2.88437 11.8446 2.84286ZM13.5369 1.96535C12.6548 1.59998 11.5365 1.59998 9.3 1.59998H7.7C5.46348 1.59998 4.34522 1.59998 3.46312 1.96535C2.28698 2.45253 1.35255 3.38696 0.865378 4.5631C0.5 5.4452 0.5 6.56346 0.5 8.79998C0.5 11.0365 0.5 12.1548 0.865378 13.0369C1.35255 14.213 2.28698 15.1474 3.46312 15.6346C4.34522 16 5.46348 16 7.7 16H9.3C11.5365 16 12.6548 16 13.5369 15.6346C14.713 15.1474 15.6474 14.213 16.1346 13.0369C16.5 12.1548 16.5 11.0365 16.5 8.79998C16.5 6.56346 16.5 5.4452 16.1346 4.5631C15.6474 3.38696 14.713 2.45253 13.5369 1.96535Z" fill="#0E638C"/>
<path fill-rule="evenodd" clip-rule="evenodd" d="M5.30005 8.79995C5.30005 8.46859 5.56868 8.19995 5.90005 8.19995H11.1C11.4314 8.19995 11.7 8.46859 11.7 8.79995C11.7 9.13131 11.4314 9.39995 11.1 9.39995H5.90005C5.56868 9.39995 5.30005 9.13131 5.30005 8.79995Z" fill="#0E638C"/>
<path fill-rule="evenodd" clip-rule="evenodd" d="M8.4999 12C8.16853 12 7.8999 11.7313 7.8999 11.4V6.19998C7.8999 5.86861 8.16853 5.59998 8.4999 5.59998C8.83126 5.59998 9.0999 5.86861 9.0999 6.19998V11.4C9.0999 11.7313 8.83126 12 8.4999 12Z" fill="#0E638C"/>
<path fill-rule="evenodd" clip-rule="evenodd" d="M5.90005 0C6.23142 -7.24235e-09 6.50005 0.268629 6.50005 0.6V1.8C6.50005 2.13137 6.23142 2.4 5.90005 2.4C5.56868 2.4 5.30005 2.13137 5.30005 1.8V0.6C5.30005 0.268629 5.56868 7.24232e-09 5.90005 0Z" fill="#0E638C"/>
<path fill-rule="evenodd" clip-rule="evenodd" d="M10.7001 0C11.0315 -7.24235e-09 11.3001 0.268629 11.3001 0.6V1.8C11.3001 2.13137 11.0315 2.4 10.7001 2.4C10.3687 2.4 10.1001 2.13137 10.1001 1.8V0.6C10.1001 0.268629 10.3687 7.24232e-09 10.7001 0Z" fill="#0E638C"/>
</g>
<defs>
<clipPath id="clip0_1277_4718">
<rect width="16" height="16" fill="white" transform="translate(0.5)"/>
</clipPath>
</defs>
</svg>
