<svg width="17" height="16" viewBox="0 0 17 16" fill="none" xmlns="http://www.w3.org/2000/svg">
<path opacity="0.15" d="M12.5 9.33334L14.5 3.33334H3.69043L4.54757 9.33334H12.5Z" fill="#0E638C"/>
<path fill-rule="evenodd" clip-rule="evenodd" d="M1.8335 2.5C1.8335 2.22386 2.05735 2 2.3335 2H4.00016C4.24899 2 4.45995 2.18296 4.49514 2.42929L4.62429 3.33333H15.0002C15.1609 3.33333 15.3118 3.41059 15.4058 3.54098C15.4998 3.67136 15.5253 3.83897 15.4745 3.99145L13.4745 9.99145C13.4064 10.1956 13.2154 10.3333 13.0002 10.3333H5.62429L5.76714 11.3333H12.3335C13.346 11.3333 14.1668 12.1541 14.1668 13.1667C14.1668 14.1792 13.346 15 12.3335 15C11.321 15 10.5002 14.1792 10.5002 13.1667C10.5002 12.8666 10.5723 12.5834 10.7001 12.3333H8.6336C8.76141 12.5834 8.8335 12.8666 8.8335 13.1667C8.8335 14.1792 8.0127 15 7.00016 15C5.98765 15 5.16683 14.1792 5.16683 13.1667C5.16683 12.8666 5.23892 12.5834 5.36673 12.3333H5.3335C5.08467 12.3333 4.87371 12.1504 4.83852 11.904L4.55407 9.91289C4.5532 9.90743 4.55241 9.90195 4.55172 9.89643L3.69691 3.91274C3.69605 3.90738 3.69528 3.902 3.6946 3.89659L3.56651 3H2.3335C2.05735 3 1.8335 2.77614 1.8335 2.5ZM4.76714 4.33333L5.48143 9.33333H12.6398L14.3064 4.33333H4.76714ZM7.00016 12.3333C6.53992 12.3333 6.16683 12.7064 6.16683 13.1667C6.16683 13.6269 6.53992 14 7.00016 14C7.46042 14 7.8335 13.6269 7.8335 13.1667C7.8335 12.7064 7.46042 12.3333 7.00016 12.3333ZM12.3335 12.3333C11.8732 12.3333 11.5002 12.7064 11.5002 13.1667C11.5002 13.6269 11.8732 14 12.3335 14C12.7938 14 13.1668 13.6269 13.1668 13.1667C13.1668 12.7064 12.7938 12.3333 12.3335 12.3333Z" fill="#0E638C"/>
</svg>
