<svg width="16" height="16" viewBox="0 0 16 16" fill="none" xmlns="http://www.w3.org/2000/svg">
<path opacity="0.15" d="M8 14C11.3137 14 14 11.3137 14 8C14 4.68629 11.3137 2 8 2V8H2C2 11.3137 4.68629 14 8 14Z" fill="#0E638C"/>
<path fill-rule="evenodd" clip-rule="evenodd" d="M3.02242 8H8V3.02242C5.36143 3.2602 3.2602 5.36143 3.02242 8ZM9 3.02242V8.29289L12.7267 12.0196C13.522 11.0655 14 9.83895 14 8.5C14 5.63098 11.8033 3.27503 9 3.02242ZM12.3891 12.3891C12.2711 12.5071 12.1478 12.6198 12.0196 12.7267L8.29289 9H8.5V8.5L8.14645 8.85355L8.29289 9H3.02242C3.27503 11.8033 5.63098 14 8.5 14C9.83895 14 11.0655 13.522 12.0196 12.7267L12.3891 13.0962L12.7427 12.7427M2 8.5C2 4.91015 4.91015 2 8.5 2C12.0899 2 15 4.91015 15 8.5C15 10.2948 14.2719 11.9205 13.0962 13.0962L13.0962 13.0962C11.9205 14.2719 10.2948 15 8.5 15C4.91015 15 2 12.0899 2 8.5Z" fill="#0E638C"/>
</svg>
