<svg width="16" height="16" viewBox="0 0 16 16" fill="none" xmlns="http://www.w3.org/2000/svg">
<rect width="16" height="16" rx="8" fill="#51B349"/>
<path fill-rule="evenodd" clip-rule="evenodd" d="M11.5202 5.14645C11.7155 5.34171 11.7155 5.65829 11.5202 5.85355L8.18689 9.18689C7.99162 9.38215 7.67504 9.38215 7.47978 9.18689C7.28452 8.99162 7.28452 8.67504 7.47978 8.47978L10.8131 5.14645C11.0084 4.95118 11.325 4.95118 11.5202 5.14645ZM4.14645 7.81311C4.34171 7.61785 4.65829 7.61785 4.85355 7.81311L6.85355 9.81311C7.04882 10.0084 7.04882 10.325 6.85355 10.5202C6.65829 10.7155 6.34171 10.7155 6.14645 10.5202L4.14645 8.52022C3.95118 8.32496 3.95118 8.00838 4.14645 7.81311Z" fill="white"/>
</svg>
