<svg width="6" height="4" viewBox="0 0 6 4" fill="none" xmlns="http://www.w3.org/2000/svg">
<path d="M2.72482 3.69976L0.326824 0.958761C0.0438238 0.636261 0.273824 0.129761 0.703324 0.129761H5.49932C5.59545 0.129679 5.68956 0.157305 5.77038 0.209331C5.85121 0.261358 5.91532 0.335579 5.95505 0.423107C5.99478 0.510635 6.00843 0.60776 5.99438 0.70285C5.98033 0.797939 5.93917 0.886963 5.87582 0.959261L3.47782 3.69926C3.43089 3.75297 3.37302 3.79601 3.30808 3.8255C3.24314 3.85499 3.17265 3.87025 3.10132 3.87025C3.03 3.87025 2.95951 3.85499 2.89457 3.8255C2.82963 3.79601 2.77175 3.75297 2.72482 3.69926V3.69976Z" fill="#354753"/>
</svg>
