<svg width="16" height="16" viewBox="0 0 16 16" fill="none" xmlns="http://www.w3.org/2000/svg">
<path d="M8.5117 9.38564C8.59527 9.45194 8.66473 9.53429 8.716 9.62783C8.76727 9.72138 8.79931 9.82423 8.81024 9.93034C8.82117 10.0365 8.81077 10.1437 8.77965 10.2457C8.74853 10.3477 8.69732 10.4425 8.62903 10.5245C8.56074 10.6064 8.47675 10.6739 8.382 10.7229C8.28725 10.7719 8.18366 10.8015 8.07732 10.8099C7.97097 10.8182 7.86403 10.8053 7.76277 10.7717C7.66151 10.7381 7.56799 10.6847 7.4877 10.6144L2.6877 6.61444C2.60414 6.54813 2.53468 6.46578 2.48341 6.37224C2.43214 6.27869 2.4001 6.17584 2.38917 6.06973C2.37823 5.96362 2.38863 5.85639 2.41975 5.75436C2.45087 5.65232 2.50209 5.55755 2.57038 5.4756C2.63867 5.39365 2.72266 5.32618 2.81741 5.27717C2.91216 5.22817 3.01575 5.1986 3.12209 5.19022C3.22843 5.18184 3.33538 5.19481 3.43664 5.22837C3.53789 5.26193 3.63142 5.3154 3.7117 5.38564L8.5117 9.38564Z" fill="#BAC7D1"/>
<path d="M12.2877 5.38559C12.4513 5.25578 12.6592 5.19509 12.8669 5.21649C13.0747 5.2379 13.2658 5.33969 13.3995 5.50014C13.5332 5.66058 13.5989 5.86694 13.5825 6.07514C13.5661 6.28335 13.4689 6.47688 13.3117 6.61439L8.51171 10.6144C8.43142 10.6846 8.3379 10.7381 8.23664 10.7717C8.13539 10.8052 8.02844 10.8182 7.9221 10.8098C7.81575 10.8014 7.71216 10.7719 7.61741 10.7229C7.52266 10.6738 7.43867 10.6064 7.37038 10.5244C7.30209 10.4425 7.25088 10.3477 7.21976 10.2457C7.18864 10.1436 7.17824 10.0364 7.18917 9.9303C7.2001 9.82419 7.23215 9.72133 7.28342 9.62779C7.33468 9.53424 7.40414 9.4519 7.48771 9.38559L12.2877 5.38559Z" fill="#BAC7D1"/>
</svg>
