<svg width="16" height="16" viewBox="0 0 16 16" fill="none" xmlns="http://www.w3.org/2000/svg">
<path opacity="0.15" d="M14 12V4.00001C14 3.81592 13.9254 3.64925 13.8047 3.52861L13.6667 3.66668L8.9428 8.39054C8.42213 8.9112 7.57787 8.9112 7.0572 8.39054L2.33333 3.66668L2.19526 3.52861C2.07462 3.64925 2 3.81592 2 4.00001V12C2 12.3682 2.29848 12.6667 2.66667 12.6667H13.3333C13.7015 12.6667 14 12.3682 14 12Z" fill="#0E638C"/>
<path fill-rule="evenodd" clip-rule="evenodd" d="M3.70711 4.33334L7.91075 8.53698C8.23616 8.86239 8.76384 8.86239 9.08925 8.53698L13.2929 4.33334H3.70711ZM14 5.04044V12.5C14 12.5921 13.9254 12.6667 13.8333 12.6667H3.16667C3.07462 12.6667 3 12.5921 3 12.5V5.04044L7.20365 9.24409C7.91958 9.96002 9.08042 9.96002 9.79635 9.24409L14 5.04044ZM2.34172 3.67503C2.55229 3.46447 2.84464 3.33334 3.16667 3.33334H13.8333C14.1554 3.33334 14.4477 3.46448 14.6582 3.675L14.6583 3.67501C14.8689 3.88563 15 4.17801 15 4.5V12.5C15 13.1443 14.4777 13.6667 13.8333 13.6667H3.16667C2.52234 13.6667 2 13.1444 2 12.5V4.5C2 4.17797 2.13113 3.88563 2.3417 3.67505L2.34172 3.67503Z" fill="#0E638C"/>
</svg>
