<svg width="7" height="12" viewBox="0 0 7 12" fill="none" xmlns="http://www.w3.org/2000/svg">
<path d="M5.05214 5.48801C5.11844 5.40444 5.20079 5.33498 5.29434 5.28371C5.38788 5.23244 5.49074 5.2004 5.59685 5.18947C5.70296 5.17854 5.81018 5.18894 5.91222 5.22006C6.01425 5.25118 6.10903 5.30239 6.19098 5.37068C6.27293 5.43897 6.34039 5.52296 6.3894 5.61771C6.43841 5.71246 6.46798 5.81605 6.47636 5.92239C6.48474 6.02874 6.47177 6.13568 6.43821 6.23694C6.40465 6.3382 6.35118 6.43172 6.28094 6.51201L2.28094 11.312C2.21464 11.3956 2.13229 11.465 2.03874 11.5163C1.9452 11.5676 1.84234 11.5996 1.73623 11.6105C1.63012 11.6215 1.52289 11.6111 1.42086 11.58C1.31883 11.5488 1.22405 11.4976 1.1421 11.4293C1.06015 11.361 0.992688 11.2771 0.943679 11.1823C0.894669 11.0876 0.865104 10.984 0.856722 10.8776C0.84834 10.7713 0.86131 10.6643 0.89487 10.5631C0.92843 10.4618 0.981902 10.3683 1.05214 10.288L5.05214 5.48801Z" fill="#798A97"/>
<path d="M1.05222 1.712C0.922405 1.5484 0.861718 1.34052 0.883121 1.13277C0.904524 0.925018 1.00632 0.733875 1.16676 0.600174C1.3272 0.466473 1.53357 0.400814 1.74177 0.417224C1.94997 0.433635 2.1435 0.530814 2.28102 0.688001L6.28102 5.488C6.35125 5.56829 6.40473 5.66181 6.43829 5.76307C6.47185 5.86432 6.48482 5.97127 6.47644 6.07761C6.46805 6.18396 6.43849 6.28755 6.38948 6.3823C6.34047 6.47705 6.27301 6.56104 6.19106 6.62933C6.10911 6.69762 6.01433 6.74883 5.9123 6.77995C5.81026 6.81107 5.70304 6.82147 5.59692 6.81054C5.49081 6.79961 5.38796 6.76756 5.29441 6.71629C5.20087 6.66503 5.11852 6.59557 5.05222 6.512L1.05222 1.712Z" fill="#798A97"/>
</svg>
