<svg width="17" height="16" viewBox="0 0 17 16" fill="none" xmlns="http://www.w3.org/2000/svg">
<path d="M9.02684 9.40028C9.1104 9.46659 9.17986 9.54894 9.23113 9.64248C9.2824 9.73603 9.31445 9.83888 9.32538 9.94499C9.33631 10.0511 9.32591 10.1583 9.29479 10.2604C9.26367 10.3624 9.21246 10.4572 9.14417 10.5391C9.07588 10.6211 8.99189 10.6885 8.89714 10.7375C8.80239 10.7866 8.6988 10.8161 8.59245 10.8245C8.48611 10.8329 8.37916 10.8199 8.2779 10.7864C8.17665 10.7528 8.08313 10.6993 8.00284 10.6291L3.20284 6.62908C3.11928 6.56278 3.04982 6.48043 2.99855 6.38689C2.94728 6.29334 2.91523 6.19049 2.9043 6.08438C2.89337 5.97827 2.90377 5.87104 2.93489 5.76901C2.96601 5.66697 3.01722 5.57219 3.08551 5.49024C3.1538 5.4083 3.23779 5.34083 3.33254 5.29182C3.42729 5.24281 3.53088 5.21325 3.63723 5.20487C3.74357 5.19648 3.85052 5.20945 3.95177 5.24301C4.05303 5.27657 4.14655 5.33005 4.22684 5.40028L9.02684 9.40028Z" fill="#0E638C"/>
<path d="M12.8028 5.40024C12.9664 5.27043 13.1743 5.20974 13.3821 5.23114C13.5898 5.25255 13.781 5.35434 13.9147 5.51478C14.0484 5.67523 14.114 5.88159 14.0976 6.08979C14.0812 6.298 13.984 6.49153 13.8268 6.62904L9.02685 10.629C8.94656 10.6993 8.85304 10.7527 8.75178 10.7863C8.65052 10.8199 8.54358 10.8328 8.43723 10.8245C8.33089 10.8161 8.2273 10.7865 8.13255 10.7375C8.0378 10.6885 7.95381 10.621 7.88552 10.5391C7.81723 10.4571 7.76602 10.3624 7.7349 10.2603C7.70378 10.1583 7.69338 10.0511 7.70431 9.94495C7.71524 9.83883 7.74728 9.73598 7.79855 9.64244C7.84982 9.54889 7.91928 9.46654 8.00285 9.40024L12.8028 5.40024Z" fill="#0E638C"/>
</svg>
