<svg width="16" height="16" viewBox="0 0 16 16" fill="none" xmlns="http://www.w3.org/2000/svg">
<path d="M8.52684 9.40028C8.6104 9.46659 8.67986 9.54894 8.73113 9.64248C8.7824 9.73603 8.81445 9.83888 8.82538 9.94499C8.83631 10.0511 8.82591 10.1583 8.79479 10.2604C8.76367 10.3624 8.71246 10.4572 8.64417 10.5391C8.57588 10.6211 8.49189 10.6885 8.39714 10.7375C8.30239 10.7866 8.1988 10.8161 8.09245 10.8245C7.98611 10.8329 7.87916 10.8199 7.7779 10.7864C7.67665 10.7528 7.58313 10.6993 7.50284 10.6291L2.70284 6.62908C2.61928 6.56278 2.54982 6.48043 2.49855 6.38689C2.44728 6.29334 2.41523 6.19049 2.4043 6.08438C2.39337 5.97827 2.40377 5.87104 2.43489 5.76901C2.46601 5.66697 2.51722 5.57219 2.58551 5.49024C2.6538 5.4083 2.73779 5.34083 2.83254 5.29182C2.92729 5.24281 3.03088 5.21325 3.13723 5.20487C3.24357 5.19648 3.35052 5.20945 3.45177 5.24301C3.55303 5.27657 3.64655 5.33005 3.72684 5.40028L8.52684 9.40028Z" fill="#DC8400"/>
<path d="M12.3028 5.40036C12.4664 5.27055 12.6743 5.20986 12.8821 5.23127C13.0898 5.25267 13.281 5.35446 13.4147 5.51491C13.5484 5.67535 13.614 5.88171 13.5976 6.08992C13.5812 6.29812 13.484 6.49165 13.3268 6.62916L8.52685 10.6292C8.44656 10.6994 8.35304 10.7529 8.25178 10.7864C8.15052 10.82 8.04358 10.833 7.93723 10.8246C7.83089 10.8162 7.7273 10.7866 7.63255 10.7376C7.5378 10.6886 7.45381 10.6211 7.38552 10.5392C7.31723 10.4573 7.26602 10.3625 7.2349 10.2604C7.20378 10.1584 7.19338 10.0512 7.20431 9.94507C7.21524 9.83896 7.24728 9.7361 7.29855 9.64256C7.34982 9.54901 7.41928 9.46667 7.50285 9.40036L12.3028 5.40036Z" fill="#DC8400"/>
</svg>
