<svg width="6" height="12" viewBox="0 0 6 12" fill="none" xmlns="http://www.w3.org/2000/svg">
<path d="M4.38561 5.48799C4.45191 5.40443 4.53426 5.33497 4.6278 5.2837C4.72135 5.23243 4.8242 5.20039 4.93031 5.18945C5.03642 5.17852 5.14365 5.18892 5.24568 5.22004C5.34772 5.25116 5.4425 5.30237 5.52444 5.37066C5.60639 5.43896 5.67386 5.52295 5.72287 5.61769C5.77188 5.71244 5.80144 5.81604 5.80982 5.92238C5.81821 6.02872 5.80524 6.13567 5.77168 6.23693C5.73812 6.33818 5.68464 6.43171 5.61441 6.51199L1.6144 11.312C1.5481 11.3956 1.46575 11.465 1.37221 11.5163C1.27866 11.5676 1.17581 11.5996 1.0697 11.6105C0.963586 11.6215 0.85636 11.6111 0.754327 11.5799C0.652294 11.5488 0.557515 11.4976 0.475566 11.4293C0.393617 11.361 0.326154 11.277 0.277144 11.1823C0.228135 11.0875 0.198569 10.9839 0.190187 10.8776C0.181805 10.7713 0.194776 10.6643 0.228336 10.5631C0.261896 10.4618 0.315367 10.3683 0.385605 10.288L4.38561 5.48799Z" fill="#0E638C"/>
<path d="M0.385606 1.71199C0.255794 1.54838 0.195107 1.3405 0.21651 1.13275C0.237913 0.925002 0.339709 0.73386 0.500151 0.600159C0.660592 0.466457 0.866958 0.400798 1.07516 0.417209C1.28336 0.43362 1.47689 0.530799 1.61441 0.687986L5.61441 5.48799C5.68464 5.56827 5.73812 5.66179 5.77168 5.76305C5.80524 5.86431 5.81821 5.97125 5.80982 6.0776C5.80144 6.18394 5.77188 6.28753 5.72287 6.38228C5.67386 6.47703 5.60639 6.56102 5.52445 6.62931C5.4425 6.6976 5.34772 6.74882 5.24568 6.77994C5.14365 6.81106 5.03643 6.82146 4.93031 6.81052C4.8242 6.79959 4.72135 6.76755 4.6278 6.71628C4.53426 6.66501 4.45191 6.59555 4.38561 6.51199L0.385606 1.71199Z" fill="#0E638C"/>
</svg>
