<svg width="25" height="24" viewBox="0 0 25 24" fill="none" xmlns="http://www.w3.org/2000/svg">
<path opacity="0.15" d="M4.40479 4L9.40478 12V18L15.4048 21V12L20.4048 4H4.40479Z" fill="#FFB229"/>
<path fill-rule="evenodd" clip-rule="evenodd" d="M4.4988 4.38642C4.63097 4.14796 4.88214 4 5.15479 4H21.1548C21.4274 4 21.6786 4.14796 21.8108 4.38642C21.9429 4.62489 21.9353 4.9163 21.7908 5.1475L16.9048 12.9651V21.75C16.9048 22.0099 16.7702 22.2513 16.5491 22.388C16.328 22.5246 16.0519 22.5371 15.8194 22.4208L9.81938 19.4208C9.56529 19.2938 9.40479 19.0341 9.40479 18.75V12.9651L4.51879 5.1475C4.37429 4.9163 4.36663 4.62489 4.4988 4.38642ZM6.50797 5.5L10.7908 12.3525C10.8653 12.4717 10.9048 12.6094 10.9048 12.75V18.2865L15.4048 20.5365V12.75C15.4048 12.6094 15.4443 12.4717 15.5188 12.3525L19.8016 5.5H6.50797Z" fill="#FFB229"/>
</svg>
