<svg width="21" height="21" viewBox="0 0 21 21" fill="none" xmlns="http://www.w3.org/2000/svg">
<path opacity="0.15" d="M9.834 19C14.8046 19 18.834 14.9706 18.834 10C18.834 5.02944 14.8046 1 9.834 1C4.86342 1 0.833984 5.02944 0.833984 10C0.833984 14.9706 4.86342 19 9.834 19Z" fill="#798A97"/>
<path fill-rule="evenodd" clip-rule="evenodd" d="M2.36762 10H5.85396C6.00438 7.19512 6.98019 5.05361 7.9599 3.58397C8.1654 3.27579 8.3711 2.99707 8.5694 2.74774C5.22139 3.58794 2.68535 6.47415 2.36762 10ZM10.584 2.7496C10.5536 2.77906 10.522 2.81014 10.4893 2.84283C10.1433 3.18885 9.6763 3.71357 9.208 4.41603C8.358 5.69103 7.5042 7.54961 7.3564 10H13.8116C13.6638 7.54961 12.8099 5.69103 11.9599 4.41603C11.4916 3.71357 11.0247 3.18885 10.6787 2.84283C10.646 2.81014 10.6144 2.77906 10.584 2.7496ZM13.8116 11.5H7.3564C7.5042 13.9504 8.358 15.809 9.208 17.084C9.6763 17.7864 10.1433 18.3111 10.4893 18.6572C10.522 18.6899 10.5536 18.7209 10.584 18.7504C10.6144 18.7209 10.646 18.6899 10.6787 18.6572C11.0247 18.3111 11.4916 17.7864 11.9599 17.084C12.8099 15.809 13.6638 13.9504 13.8116 11.5ZM8.5694 18.7523C8.3711 18.5029 8.1654 18.2242 7.9599 17.916C6.98019 16.4464 6.00438 14.3049 5.85396 11.5H2.36762C2.68535 15.0259 5.22139 17.9121 8.5694 18.7523ZM12.5986 18.7523C12.7969 18.5029 13.0026 18.2242 13.208 17.916C14.1878 16.4464 15.1636 14.3049 15.314 11.5H18.8004C18.4826 15.0259 15.9466 17.9121 12.5986 18.7523ZM18.8004 10H15.314C15.1636 7.19512 14.1878 5.05361 13.208 3.58397C13.0026 3.27579 12.7969 2.99706 12.5986 2.74773C15.9466 3.58793 18.4826 6.47414 18.8004 10ZM0.833984 10.75C0.833984 5.36523 5.19921 1 10.584 1C15.9688 1 20.334 5.36523 20.334 10.75C20.334 16.1348 15.9688 20.5 10.584 20.5C5.19921 20.5 0.833984 16.1348 0.833984 10.75Z" fill="#798A97"/>
</svg>
