<svg width="17" height="16" viewBox="0 0 17 16" fill="none" xmlns="http://www.w3.org/2000/svg">
<g opacity="0.15">
<path d="M2.83325 9H7.49992V13.6667H2.83325V9Z" fill="#0E638C"/>
<path d="M9.5 2.33337H14.1667V7.00004H9.5V2.33337Z" fill="#0E638C"/>
<path d="M9.5 9H14.1667V13.6667H9.5V9Z" fill="#0E638C"/>
</g>
<path fill-rule="evenodd" clip-rule="evenodd" d="M2.83325 2.83337C2.83325 2.55723 3.05711 2.33337 3.33325 2.33337H7.99992C8.27606 2.33337 8.49992 2.55723 8.49992 2.83337V7.50004C8.49992 7.77618 8.27606 8.00004 7.99992 8.00004H3.33325C3.05711 8.00004 2.83325 7.77618 2.83325 7.50004V2.83337ZM3.83325 3.33337V7.00004H7.49992V3.33337H3.83325Z" fill="#0E638C"/>
<path fill-rule="evenodd" clip-rule="evenodd" d="M2.83325 9.5C2.83325 9.22386 3.05711 9 3.33325 9H7.99992C8.27606 9 8.49992 9.22386 8.49992 9.5V14.1667C8.49992 14.4428 8.27606 14.6667 7.99992 14.6667H3.33325C3.05711 14.6667 2.83325 14.4428 2.83325 14.1667V9.5ZM3.83325 10V13.6667H7.49992V10H3.83325Z" fill="#0E638C"/>
<path fill-rule="evenodd" clip-rule="evenodd" d="M9.5 2.83337C9.5 2.55723 9.72386 2.33337 10 2.33337H14.6667C14.9428 2.33337 15.1667 2.55723 15.1667 2.83337V7.50004C15.1667 7.77618 14.9428 8.00004 14.6667 8.00004H10C9.72386 8.00004 9.5 7.77618 9.5 7.50004V2.83337ZM10.5 3.33337V7.00004H14.1667V3.33337H10.5Z" fill="#0E638C"/>
<path fill-rule="evenodd" clip-rule="evenodd" d="M9.5 9.5C9.5 9.22386 9.72386 9 10 9H14.6667C14.9428 9 15.1667 9.22386 15.1667 9.5V14.1667C15.1667 14.4428 14.9428 14.6667 14.6667 14.6667H10C9.72386 14.6667 9.5 14.4428 9.5 14.1667V9.5ZM10.5 10V13.6667H14.1667V10H10.5Z" fill="#0E638C"/>
</svg>
