<svg width="24" height="24" viewBox="0 0 24 24" fill="none" xmlns="http://www.w3.org/2000/svg">
<path fill-rule="evenodd" clip-rule="evenodd" d="M4 7.75C4 7.33579 4.33579 7 4.75 7H20.75C21.1642 7 21.5 7.33579 21.5 7.75C21.5 8.16421 21.1642 8.5 20.75 8.5H4.75C4.33579 8.5 4 8.16421 4 7.75ZM4 12.75C4 12.3358 4.33579 12 4.75 12H20.75C21.1642 12 21.5 12.3358 21.5 12.75C21.5 13.1642 21.1642 13.5 20.75 13.5H4.75C4.33579 13.5 4 13.1642 4 12.75ZM4 17.75C4 17.3358 4.33579 17 4.75 17H20.75C21.1642 17 21.5 17.3358 21.5 17.75C21.5 18.1642 21.1642 18.5 20.75 18.5H4.75C4.33579 18.5 4 18.1642 4 17.75Z" fill="#0B415B"/>
</svg>
