<svg width="20" height="18" viewBox="0 0 20 18" fill="none" xmlns="http://www.w3.org/2000/svg">
<path fill-rule="evenodd" clip-rule="evenodd" d="M0 5.46405C0 2.47228 2.34548 0 5.29569 0C6.70918 0 8.059 0.582561 9.04987 1.6101L9.04989 1.61012L9.75 2.33617L10.4501 1.61012L10.4501 1.6101C11.441 0.582561 12.7908 0 14.2043 0C17.1545 0 19.5 2.47228 19.5 5.46405C19.5 6.90458 18.9485 8.29133 17.9585 9.31799L17.4186 8.7974L17.9585 9.318L10.2899 17.2706C10.1485 17.4172 9.95364 17.5 9.75 17.5C9.54636 17.5 9.35147 17.4172 9.21012 17.2706L1.54152 9.318L1.5415 9.31799C0.551562 8.29133 0 6.90459 0 5.46405ZM5.29569 1.5C3.22486 1.5 1.5 3.24882 1.5 5.46405C1.5 6.52399 1.90628 7.53527 2.6213 8.27681L9.75 15.6695L16.8787 8.27681C17.5937 7.53527 18 6.524 18 5.46405C18 3.24883 16.2751 1.5 14.2043 1.5C13.2066 1.5 12.244 1.91075 11.5299 2.6513C11.5299 2.65131 11.5299 2.65131 11.5299 2.65132L10.2899 3.93726C10.1485 4.08386 9.95364 4.16667 9.75 4.16667C9.54636 4.16667 9.35147 4.08386 9.21011 3.93726L7.97013 2.65132C7.97012 2.65132 7.97012 2.65131 7.97011 2.6513C7.25597 1.91075 6.29337 1.5 5.29569 1.5Z" fill="#0B415B"/>
</svg>
