<svg width="17" height="16" viewBox="0 0 17 16" fill="none" xmlns="http://www.w3.org/2000/svg">
<path opacity="0.15" d="M13.8334 2.66663H3.16675V13.3333H13.8334V2.66663Z" fill="#0E638C"/>
<path fill-rule="evenodd" clip-rule="evenodd" d="M3.16675 3.16663C3.16675 2.89048 3.39061 2.66663 3.66675 2.66663H14.3334C14.6096 2.66663 14.8334 2.89048 14.8334 3.16663V13.8333C14.8334 14.1094 14.6096 14.3333 14.3334 14.3333H3.66675C3.39061 14.3333 3.16675 14.1094 3.16675 13.8333V3.16663ZM4.16675 3.66663V13.3333H13.8334V3.66663H4.16675ZM5.16675 5.83329C5.16675 5.55715 5.39061 5.33329 5.66675 5.33329H12.3334C12.6096 5.33329 12.8334 5.55715 12.8334 5.83329C12.8334 6.10944 12.6096 6.33329 12.3334 6.33329H5.66675C5.39061 6.33329 5.16675 6.10944 5.16675 5.83329ZM5.16675 8.49996C5.16675 8.22382 5.39061 7.99996 5.66675 7.99996H12.3334C12.6096 7.99996 12.8334 8.22382 12.8334 8.49996C12.8334 8.7761 12.6096 8.99996 12.3334 8.99996H5.66675C5.39061 8.99996 5.16675 8.7761 5.16675 8.49996ZM7.83342 11.1666C7.83342 10.8905 8.05727 10.6666 8.33342 10.6666H12.3334C12.6096 10.6666 12.8334 10.8905 12.8334 11.1666C12.8334 11.4428 12.6096 11.6666 12.3334 11.6666H8.33342C8.05727 11.6666 7.83342 11.4428 7.83342 11.1666Z" fill="#0E638C"/>
</svg>
