<svg width="17" height="16" viewBox="0 0 17 16" fill="none" xmlns="http://www.w3.org/2000/svg">
<path opacity="0.15" d="M13.5358 2.66663H2.86914V13.3333H13.5358V2.66663Z" fill="#FFB229"/>
<path fill-rule="evenodd" clip-rule="evenodd" d="M2.86914 3.16663C2.86914 2.89048 3.093 2.66663 3.36914 2.66663H14.0358C14.3119 2.66663 14.5358 2.89048 14.5358 3.16663V13.8333C14.5358 14.1094 14.3119 14.3333 14.0358 14.3333H3.36914C3.093 14.3333 2.86914 14.1094 2.86914 13.8333V3.16663ZM3.86914 3.66663V13.3333H13.5358V3.66663H3.86914ZM4.86914 5.83329C4.86914 5.55715 5.093 5.33329 5.36914 5.33329H12.0358C12.3119 5.33329 12.5358 5.55715 12.5358 5.83329C12.5358 6.10944 12.3119 6.33329 12.0358 6.33329H5.36914C5.093 6.33329 4.86914 6.10944 4.86914 5.83329ZM4.86914 8.49996C4.86914 8.22382 5.093 7.99996 5.36914 7.99996H12.0358C12.3119 7.99996 12.5358 8.22382 12.5358 8.49996C12.5358 8.7761 12.3119 8.99996 12.0358 8.99996H5.36914C5.093 8.99996 4.86914 8.7761 4.86914 8.49996ZM7.53581 11.1666C7.53581 10.8905 7.75967 10.6666 8.03581 10.6666H12.0358C12.3119 10.6666 12.5358 10.8905 12.5358 11.1666C12.5358 11.4428 12.3119 11.6666 12.0358 11.6666H8.03581C7.75967 11.6666 7.53581 11.4428 7.53581 11.1666Z" fill="#FFB229"/>
</svg>
