<svg width="16" height="16" viewBox="0 0 16 16" fill="none" xmlns="http://www.w3.org/2000/svg">
<path opacity="0.15" fill-rule="evenodd" clip-rule="evenodd" d="M8.00008 14C10.9456 12.6667 13.3334 10.2789 13.3334 7.33333C13.3334 4.38781 10.9456 2 8.00008 2C5.05456 2 2.66675 4.38781 2.66675 7.33333C2.66675 10.2789 5.05456 12.6667 8.00008 14ZM8.00008 9.33333C9.10468 9.33333 10.0001 8.43793 10.0001 7.33333C10.0001 6.22877 9.10468 5.33333 8.00008 5.33333C6.89548 5.33333 6.00008 6.22877 6.00008 7.33333C6.00008 8.43793 6.89548 9.33333 8.00008 9.33333Z" fill="#0E638C"/>
<path fill-rule="evenodd" clip-rule="evenodd" d="M6 7.83337C6 6.45267 7.11925 5.33337 8.5 5.33337C9.88075 5.33337 11 6.45267 11 7.83337C11 9.21412 9.88074 10.3334 8.5 10.3334C7.11926 10.3334 6 9.21412 6 7.83337ZM8.5 6.33337C7.67155 6.33337 7 7.00494 7 7.83337C7 8.66183 7.67154 9.33337 8.5 9.33337C9.32846 9.33337 10 8.66183 10 7.83337C10 7.00494 9.32845 6.33337 8.5 6.33337Z" fill="#0E638C"/>
<path fill-rule="evenodd" clip-rule="evenodd" d="M2.66675 7.83333C2.66675 4.61167 5.27842 2 8.50008 2C11.7218 2 14.3334 4.61167 14.3334 7.83333C14.3334 11.0697 11.7248 13.5891 8.70627 14.9555C8.57521 15.0148 8.42495 15.0148 8.29389 14.9555C5.27541 13.5891 2.66675 11.0697 2.66675 7.83333ZM8.50008 3C5.8307 3 3.66675 5.16396 3.66675 7.83333C3.66675 10.4241 5.73064 12.6353 8.50008 13.9489C11.2695 12.6353 13.3334 10.4241 13.3334 7.83333C13.3334 5.16395 11.1695 3 8.50008 3Z" fill="#0E638C"/>
</svg>
