<svg width="16" height="16" viewBox="0 0 16 16" fill="none" xmlns="http://www.w3.org/2000/svg">
<path opacity="0.15" d="M3.3335 7.33331H12.6668V14H3.3335V7.33331Z" fill="#798A97"/>
<path fill-rule="evenodd" clip-rule="evenodd" d="M6.7726 3.79215C6.44694 4.24446 6.3335 4.80224 6.3335 5.16667V7.33333H13.1668C13.443 7.33333 13.6668 7.55719 13.6668 7.83333V14.5C13.6668 14.7761 13.443 15 13.1668 15H3.8335C3.55735 15 3.3335 14.7761 3.3335 14.5V7.83333C3.3335 7.55719 3.55735 7.33333 3.8335 7.33333H5.3335V5.16667C5.3335 4.64221 5.48672 3.86666 5.96106 3.20785C6.45376 2.52354 7.27054 2 8.50016 2C9.98119 2 10.8456 2.75698 11.2817 3.60457C11.408 3.85012 11.3114 4.15159 11.0659 4.27793C10.8203 4.40427 10.5188 4.30764 10.3925 4.0621C10.1085 3.51011 9.5662 3 8.50016 3C7.59646 3 7.0799 3.36535 6.7726 3.79215ZM4.3335 8.33333V14H12.6668V8.33333H4.3335Z" fill="#798A97"/>
</svg>
