<svg width="16" height="16" viewBox="0 0 16 16" fill="none" xmlns="http://www.w3.org/2000/svg">
<path fill-rule="evenodd" clip-rule="evenodd" d="M10.0001 3.16666C10.0001 2.89051 10.2239 2.66666 10.5001 2.66666H12.5001C13.5126 2.66666 14.3334 3.48747 14.3334 4.49999V12.5C14.3334 13.5125 13.5126 14.3333 12.5001 14.3333H10.5001C10.2239 14.3333 10.0001 14.1095 10.0001 13.8333C10.0001 13.5572 10.2239 13.3333 10.5001 13.3333H12.5001C12.9603 13.3333 13.3334 12.9602 13.3334 12.5V4.49999C13.3334 4.03975 12.9603 3.66666 12.5001 3.66666H10.5001C10.2239 3.66666 10.0001 3.4428 10.0001 3.16666ZM6.18697 5.47977C6.38223 5.67503 6.38223 5.99161 6.18697 6.18688L4.37385 7.99999H11.1667C11.4429 7.99999 11.6667 8.22385 11.6667 8.49999C11.6667 8.77613 11.4429 8.99999 11.1667 8.99999H4.37385L6.18697 10.8131C6.38223 11.0084 6.38223 11.3249 6.18697 11.5202C5.99171 11.7155 5.67512 11.7155 5.47986 11.5202L2.81319 8.85354C2.61793 8.65828 2.61793 8.3417 2.81319 8.14644L5.47986 5.47977C5.67512 5.28451 5.99171 5.28451 6.18697 5.47977Z" fill="#0B415B"/>
</svg>
