<svg width="17" height="16" viewBox="0 0 17 16" fill="none" xmlns="http://www.w3.org/2000/svg">
<path opacity="0.15" d="M14.5 8C14.5 11.3137 11.8137 14 8.5 14C5.18629 14 2.5 11.3137 2.5 8C2.5 4.68629 5.18629 2 8.5 2C11.8137 2 14.5 4.68629 14.5 8Z" fill="#0E638C"/>
<path fill-rule="evenodd" clip-rule="evenodd" d="M9 3C5.96244 3 3.5 5.46244 3.5 8.5C3.5 11.5376 5.96243 14 9 14C12.0376 14 14.5 11.5376 14.5 8.5C14.5 5.46243 12.0376 3 9 3ZM2.5 8.5C2.5 4.91015 5.41015 2 9 2C12.5899 2 15.5 4.91015 15.5 8.5C15.5 12.0899 12.5899 15 9 15C5.41015 15 2.5 12.0899 2.5 8.5ZM9 4C9.27614 4 9.5 4.22386 9.5 4.5V5.33333H11C11.2761 5.33333 11.5 5.55719 11.5 5.83333C11.5 6.10948 11.2761 6.33333 11 6.33333H8.33333C8.19111 6.33333 7.96667 6.38011 7.79215 6.50577C7.64312 6.61306 7.5 6.79629 7.5 7.16667C7.5 7.53705 7.64312 7.72027 7.79215 7.82757C7.96667 7.95322 8.19111 8 8.33333 8H9.66667C9.96891 8 10.4111 8.08656 10.7922 8.3609C11.1987 8.6536 11.5 9.13704 11.5 9.83333C11.5 10.5296 11.1987 11.0131 10.7922 11.3058C10.4111 11.5801 9.96891 11.6667 9.66667 11.6667H9.5V12.5C9.5 12.7761 9.27614 13 9 13C8.72386 13 8.5 12.7761 8.5 12.5V11.6667H7C6.72386 11.6667 6.5 11.4428 6.5 11.1667C6.5 10.8905 6.72386 10.6667 7 10.6667H9.66667C9.80889 10.6667 10.0333 10.6199 10.2079 10.4942C10.3569 10.3869 10.5 10.2037 10.5 9.83333C10.5 9.46295 10.3569 9.27973 10.2079 9.17243C10.0333 9.04678 9.80889 9 9.66667 9H8.33333C8.03109 9 7.58887 8.91344 7.20784 8.6391C6.80131 8.3464 6.5 7.86296 6.5 7.16667C6.5 6.47038 6.80131 5.98694 7.20784 5.69423C7.58887 5.41989 8.03109 5.33333 8.33333 5.33333H8.5V4.5C8.5 4.22386 8.72386 4 9 4Z" fill="#0E638C"/>
</svg>
