<svg width="16" height="16" viewBox="0 0 16 16" fill="none" xmlns="http://www.w3.org/2000/svg">
<path opacity="0.2" fill-rule="evenodd" clip-rule="evenodd" d="M2.07375 4C1.66465 4 1.33301 4.35817 1.33301 4.8V11.2C1.33301 11.6418 1.66465 12 2.07375 12H13.9256C14.3347 12 14.6663 11.6418 14.6663 11.2V4.8C14.6663 4.35817 14.3347 4 13.9256 4H2.07375ZM7.99967 10C9.02241 10 9.85154 9.1046 9.85154 8C9.85154 6.8954 9.02241 6 7.99967 6C6.97694 6 6.14782 6.8954 6.14782 8C6.14782 9.1046 6.97694 10 7.99967 10Z" fill="#0E638C"/>
<path fill-rule="evenodd" clip-rule="evenodd" d="M2.57375 5C2.47633 5 2.33301 5.09738 2.33301 5.3V11.7C2.33301 11.9026 2.47634 12 2.57375 12H14.4256C14.523 12 14.6663 11.9026 14.6663 11.7V5.3C14.6663 5.09739 14.523 5 14.4256 5H2.57375ZM1.33301 5.3C1.33301 4.61896 1.85297 4 2.57375 4H14.4256C15.1463 4 15.6663 4.61896 15.6663 5.3V11.7C15.6663 12.381 15.1464 13 14.4256 13H2.57375C1.85295 13 1.33301 12.381 1.33301 11.7V5.3ZM4.49967 6.33333C4.77582 6.33333 4.99967 6.55719 4.99967 6.83333V10.1667C4.99967 10.4428 4.77582 10.6667 4.49967 10.6667C4.22353 10.6667 3.99967 10.4428 3.99967 10.1667V6.83333C3.99967 6.55719 4.22353 6.33333 4.49967 6.33333ZM8.49967 7.33333C7.85535 7.33333 7.33301 7.85568 7.33301 8.5C7.33301 9.14432 7.85535 9.66667 8.49967 9.66667C9.144 9.66667 9.66634 9.14432 9.66634 8.5C9.66634 7.85568 9.144 7.33333 8.49967 7.33333ZM6.33301 8.5C6.33301 7.30339 7.30307 6.33333 8.49967 6.33333C9.69628 6.33333 10.6663 7.30339 10.6663 8.5C10.6663 9.69661 9.69628 10.6667 8.49967 10.6667C7.30307 10.6667 6.33301 9.69661 6.33301 8.5ZM12.4997 6.33333C12.7758 6.33333 12.9997 6.55719 12.9997 6.83333V10.1667C12.9997 10.4428 12.7758 10.6667 12.4997 10.6667C12.2235 10.6667 11.9997 10.4428 11.9997 10.1667V6.83333C11.9997 6.55719 12.2235 6.33333 12.4997 6.33333Z" fill="#0E638C"/>
</svg>
