<svg width="17" height="16" viewBox="0 0 17 16" fill="none" xmlns="http://www.w3.org/2000/svg">
<path d="M4.20215 4.5C3.80659 4.5 3.41991 4.3827 3.09101 4.16294C2.76211 3.94318 2.50577 3.63082 2.35439 3.26537C2.20301 2.89992 2.16341 2.49778 2.24058 2.10982C2.31775 1.72186 2.50823 1.36549 2.78794 1.08579C3.06764 0.806082 3.42401 0.615601 3.81197 0.53843C4.19993 0.46126 4.60206 0.500867 4.96752 0.652242C5.33297 0.803617 5.64533 1.05996 5.86509 1.38886C6.08485 1.71776 6.20215 2.10444 6.20215 2.5C6.20215 3.03043 5.99144 3.53914 5.61636 3.91421C5.24129 4.28929 4.73258 4.5 4.20215 4.5ZM4.20215 1.5C4.00437 1.5 3.81103 1.55865 3.64658 1.66853C3.48213 1.77841 3.35396 1.93459 3.27827 2.11732C3.20258 2.30004 3.18278 2.50111 3.22136 2.69509C3.25995 2.88907 3.35519 3.06726 3.49504 3.20711C3.63489 3.34696 3.81308 3.4422 4.00706 3.48079C4.20104 3.51937 4.40211 3.49957 4.58483 3.42388C4.76756 3.34819 4.92374 3.22002 5.03362 3.05557C5.1435 2.89112 5.20215 2.69778 5.20215 2.5C5.20215 2.23478 5.09679 1.98043 4.90926 1.79289C4.72172 1.60536 4.46737 1.5 4.20215 1.5Z" fill="#0E638C"/>
<path d="M12.2021 4.5C11.8066 4.5 11.4199 4.3827 11.091 4.16294C10.7621 3.94318 10.5058 3.63082 10.3544 3.26537C10.203 2.89992 10.1634 2.49778 10.2406 2.10982C10.3177 1.72186 10.5082 1.36549 10.7879 1.08579C11.0676 0.806082 11.424 0.615601 11.812 0.53843C12.1999 0.46126 12.6021 0.500867 12.9675 0.652242C13.333 0.803617 13.6453 1.05996 13.8651 1.38886C14.0849 1.71776 14.2021 2.10444 14.2021 2.5C14.2021 3.03043 13.9914 3.53914 13.6164 3.91421C13.2413 4.28929 12.7326 4.5 12.2021 4.5ZM12.2021 1.5C12.0044 1.5 11.811 1.55865 11.6466 1.66853C11.4821 1.77841 11.354 1.93459 11.2783 2.11732C11.2026 2.30004 11.1828 2.50111 11.2214 2.69509C11.2599 2.88907 11.3552 3.06726 11.495 3.20711C11.6349 3.34696 11.8131 3.4422 12.0071 3.48079C12.201 3.51937 12.4021 3.49957 12.5848 3.42388C12.7676 3.34819 12.9237 3.22002 13.0336 3.05557C13.1435 2.89112 13.2021 2.69778 13.2021 2.5C13.2021 2.23478 13.0968 1.98043 12.9093 1.79289C12.7217 1.60536 12.4674 1.5 12.2021 1.5Z" fill="#0E638C"/>
<path d="M13.2021 15H11.2021C10.9369 15 10.6826 14.8946 10.495 14.7071C10.3075 14.5196 10.2021 14.2652 10.2021 14V10.5H11.2021V14H13.2021V9.5H14.2021V6.5C14.2021 6.36739 14.1495 6.24021 14.0557 6.14645C13.9619 6.05268 13.8348 6 13.7021 6H10.4921L8.20215 10L5.91215 6H2.70215C2.56954 6 2.44236 6.05268 2.3486 6.14645C2.25483 6.24021 2.20215 6.36739 2.20215 6.5V9.5H3.20215V14H5.20215V10.5H6.20215V14C6.20215 14.2652 6.09679 14.5196 5.90926 14.7071C5.72172 14.8946 5.46736 15 5.20215 15H3.20215C2.93693 15 2.68258 14.8946 2.49504 14.7071C2.30751 14.5196 2.20215 14.2652 2.20215 14V10.5C1.93693 10.5 1.68258 10.3946 1.49504 10.2071C1.30751 10.0196 1.20215 9.76522 1.20215 9.5V6.5C1.20215 6.10218 1.36018 5.72064 1.64149 5.43934C1.92279 5.15804 2.30432 5 2.70215 5H6.49215L8.20215 8L9.91215 5H13.7021C14.1 5 14.4815 5.15804 14.7628 5.43934C15.0441 5.72064 15.2021 6.10218 15.2021 6.5V9.5C15.2021 9.76522 15.0968 10.0196 14.9093 10.2071C14.7217 10.3946 14.4674 10.5 14.2021 10.5V14C14.2021 14.2652 14.0968 14.5196 13.9093 14.7071C13.7217 14.8946 13.4674 15 13.2021 15Z" fill="#0E638C"/>
</svg>
