<svg width="16" height="16" viewBox="0 0 16 16" fill="none" xmlns="http://www.w3.org/2000/svg">
<path opacity="0.15" d="M3.33333 7.33333H12.6667V14H3.33333V7.33333Z" fill="#0E638C"/>
<path fill-rule="evenodd" clip-rule="evenodd" d="M6.77243 3.79215C6.44677 4.24446 6.33333 4.80224 6.33333 5.16667V7.33333H13.1667C13.4428 7.33333 13.6667 7.55719 13.6667 7.83333V14.5C13.6667 14.7761 13.4428 15 13.1667 15H3.83333C3.55719 15 3.33333 14.7761 3.33333 14.5V7.83333C3.33333 7.55719 3.55719 7.33333 3.83333 7.33333H5.33333V5.16667C5.33333 4.64221 5.48655 3.86666 5.96089 3.20785C6.45359 2.52354 7.27037 2 8.5 2C9.98102 2 10.8454 2.75698 11.2815 3.60457C11.4079 3.85012 11.3112 4.15159 11.0657 4.27793C10.8201 4.40427 10.5187 4.30764 10.3923 4.0621C10.1083 3.51011 9.56603 3 8.5 3C7.59629 3 7.07973 3.36535 6.77243 3.79215ZM4.33333 8.33333V14H12.6667V8.33333H4.33333Z" fill="#0E638C"/>
</svg>
