<svg width="17" height="16" viewBox="0 0 17 16" fill="none" xmlns="http://www.w3.org/2000/svg">
<path opacity="0.15" fill-rule="evenodd" clip-rule="evenodd" d="M15.1667 4H6.5L2.5 8L6.5 12H15.1667V4ZM7.83333 9C8.3856 9 8.83333 8.55227 8.83333 8C8.83333 7.44773 8.3856 7 7.83333 7C7.28107 7 6.83333 7.44773 6.83333 8C6.83333 8.55227 7.28107 9 7.83333 9Z" fill="#0E638C"/>
<path fill-rule="evenodd" clip-rule="evenodd" d="M5.9797 4.14645C6.07347 4.05268 6.20064 4 6.33325 4H14.9999C15.2761 4 15.4999 4.22386 15.4999 4.5V12.5C15.4999 12.7761 15.2761 13 14.9999 13H6.33325C6.20064 13 6.07347 12.9473 5.9797 12.8536L1.9797 8.85355C1.78444 8.65829 1.78444 8.34171 1.9797 8.14645L5.9797 4.14645ZM6.54036 5L3.04036 8.5L6.54036 12H14.4999V5H6.54036Z" fill="#0E638C"/>
<path fill-rule="evenodd" clip-rule="evenodd" d="M7.66659 7.66675C7.20634 7.66675 6.83325 8.03983 6.83325 8.50008C6.83325 8.96033 7.20634 9.33341 7.66659 9.33341C8.12684 9.33341 8.49992 8.96034 8.49992 8.50008C8.49992 8.03982 8.12684 7.66675 7.66659 7.66675ZM5.83325 8.50008C5.83325 7.48753 6.65407 6.66675 7.66659 6.66675C8.67913 6.66675 9.49992 7.48754 9.49992 8.50008C9.49992 9.51262 8.67913 10.3334 7.66659 10.3334C6.65407 10.3334 5.83325 9.51263 5.83325 8.50008Z" fill="#0E638C"/>
</svg>
