<svg width="19" height="19" viewBox="0 0 19 19" fill="none" xmlns="http://www.w3.org/2000/svg">
<path fill-rule="evenodd" clip-rule="evenodd" d="M13.2197 0.21967C13.5126 -0.0732233 13.9874 -0.0732233 14.2803 0.21967L18.2803 4.21967C18.5732 4.51256 18.5732 4.98744 18.2803 5.28033L5.28033 18.2803C5.13968 18.421 4.94891 18.5 4.75 18.5H0.75C0.335786 18.5 0 18.1642 0 17.75V13.75C0 13.5511 0.0790176 13.3603 0.21967 13.2197L13.2197 0.21967ZM11.8107 3.75L14.75 6.68934L16.6893 4.75L13.75 1.81066L11.8107 3.75ZM13.6893 7.75L10.75 4.81066L1.5 14.0607V17H4.43934L13.6893 7.75Z" fill="#0E638C"/>
</svg>
