<svg width="16" height="16" viewBox="0 0 16 16" fill="none" xmlns="http://www.w3.org/2000/svg">
<g clip-path="url(#clip0_3573_113)">
<path opacity="0.15" d="M5.99998 7.33333C7.47271 7.33333 8.66665 6.13943 8.66665 4.66667C8.66665 3.19391 7.47271 2 5.99998 2C4.52722 2 3.33331 3.19391 3.33331 4.66667C3.33331 6.13943 4.52722 7.33333 5.99998 7.33333Z" fill="#0E638C"/>
<path fill-rule="evenodd" clip-rule="evenodd" d="M6.50002 3C5.3034 3 4.33335 3.97005 4.33335 5.16667C4.33335 6.36328 5.3034 7.33333 6.50002 7.33333C7.69661 7.33333 8.66669 6.36328 8.66669 5.16667C8.66669 3.97005 7.69661 3 6.50002 3ZM3.33335 5.16667C3.33335 3.41776 4.75112 2 6.50002 2C8.24889 2 9.66669 3.41776 9.66669 5.16667C9.66669 6.91557 8.24889 8.33333 6.50002 8.33333C4.75112 8.33333 3.33335 6.91557 3.33335 5.16667ZM10.6825 2.45938C10.7513 2.19195 11.0239 2.03096 11.2913 2.0998C12.657 2.45131 13.6667 3.69044 13.6667 5.16667C13.6667 6.6429 12.657 7.882 11.2913 8.23355C11.0239 8.30239 10.7513 8.1414 10.6825 7.87398C10.6136 7.60655 10.7746 7.33396 11.042 7.26512C11.9767 7.02453 12.6667 6.17555 12.6667 5.16667C12.6667 4.15778 11.9766 3.30879 11.0421 3.06823C10.7746 2.9994 10.6136 2.72681 10.6825 2.45938ZM3.83335 11C2.63674 11 1.66669 11.9701 1.66669 13.1667V14H11.3334V13.1667C11.3334 11.9701 10.3633 11 9.16669 11H3.83335ZM0.666687 13.1667C0.666687 11.4178 2.08445 10 3.83335 10H9.16669C10.9156 10 12.3334 11.4178 12.3334 13.1667V14.5C12.3334 14.7761 12.1095 15 11.8334 15H1.16669C0.890545 15 0.666687 14.7761 0.666687 14.5V13.1667ZM12.6667 10.5C12.6667 10.2239 12.8905 10 13.1667 10C14.9156 10 16.3334 11.4178 16.3334 13.1667V14.5C16.3334 14.7761 16.1095 15 15.8334 15H14.5C14.2239 15 14 14.7761 14 14.5C14 14.2239 14.2239 14 14.5 14H15.3334V13.1667C15.3334 11.9701 14.3633 11 13.1667 11C12.8905 11 12.6667 10.7761 12.6667 10.5Z" fill="#0E638C"/>
</g>
<defs>
<clipPath id="clip0_3573_113">
<rect width="16" height="16" fill="white"/>
</clipPath>
</defs>
</svg>
