<svg width="16" height="16" viewBox="0 0 16 16" fill="none" xmlns="http://www.w3.org/2000/svg">
<path opacity="0.15" d="M7.99967 7.33333C9.47241 7.33333 10.6663 6.13943 10.6663 4.66667C10.6663 3.19391 9.47241 2 7.99967 2C6.52691 2 5.33301 3.19391 5.33301 4.66667C5.33301 6.13943 6.52691 7.33333 7.99967 7.33333Z" fill="#0E638C"/>
<path fill-rule="evenodd" clip-rule="evenodd" d="M2.66699 13.1667C2.66699 11.4178 4.08475 10 5.83366 10H11.167C12.9159 10 14.3337 11.4178 14.3337 13.1667V14.5C14.3337 14.7761 14.1098 15 13.8337 15H3.16699C2.89085 15 2.66699 14.7761 2.66699 14.5V13.1667ZM5.83366 11C4.63704 11 3.66699 11.9701 3.66699 13.1667V14H13.3337V13.1667C13.3337 11.9701 12.3636 11 11.167 11H5.83366Z" fill="#0E638C"/>
<path fill-rule="evenodd" clip-rule="evenodd" d="M5.33301 5.16667C5.33301 3.41776 6.75077 2 8.49967 2C10.2485 2 11.6663 3.41776 11.6663 5.16667C11.6663 6.91557 10.2485 8.33333 8.49967 8.33333C6.75077 8.33333 5.33301 6.91557 5.33301 5.16667ZM8.49967 3C7.30306 3 6.33301 3.97005 6.33301 5.16667C6.33301 6.36328 7.30306 7.33333 8.49967 7.33333C9.69627 7.33333 10.6663 6.36328 10.6663 5.16667C10.6663 3.97005 9.69627 3 8.49967 3Z" fill="#0E638C"/>
</svg>
