<svg width="16" height="16" viewBox="0 0 16 16" fill="none" xmlns="http://www.w3.org/2000/svg">
<path opacity="0.15" d="M4 3.33333C4 2.59695 4.59695 2 5.33333 2H10.6667C11.4031 2 12 2.59695 12 3.33333V12.6667C12 13.4031 11.4031 14 10.6667 14H5.33333C4.59695 14 4 13.4031 4 12.6667V3.33333Z" fill="#0E638C"/>
<path fill-rule="evenodd" clip-rule="evenodd" d="M5.83333 3C5.3731 3 5 3.3731 5 3.83333V13.1667C5 13.6269 5.37309 14 5.83333 14H11.1667C11.6269 14 12 13.6269 12 13.1667V3.83333C12 3.37309 11.6269 3 11.1667 3H5.83333ZM4 3.83333C4 2.82081 4.82081 2 5.83333 2H11.1667C12.1792 2 13 2.82082 13 3.83333V13.1667C13 14.1792 12.1792 15 11.1667 15H5.83333C4.82082 15 4 14.1792 4 13.1667V3.83333ZM8.5 12C8.77614 12 9 12.2239 9 12.5V12.5067C9 12.7828 8.77614 13.0067 8.5 13.0067C8.22386 13.0067 8 12.7828 8 12.5067V12.5C8 12.2239 8.22386 12 8.5 12Z" fill="#0E638C"/>
</svg>
