<svg width="16" height="16" viewBox="0 0 16 16" fill="none" xmlns="http://www.w3.org/2000/svg">
<path fill-rule="evenodd" clip-rule="evenodd" d="M8.50033 2.66663C8.77647 2.66663 9.00033 2.89048 9.00033 3.16663V7.99996H13.8337C14.1098 7.99996 14.3337 8.22382 14.3337 8.49996C14.3337 8.7761 14.1098 8.99996 13.8337 8.99996H9.00033V13.8333C9.00033 14.1094 8.77647 14.3333 8.50033 14.3333C8.22418 14.3333 8.00033 14.1094 8.00033 13.8333V8.99996H3.16699C2.89085 8.99996 2.66699 8.7761 2.66699 8.49996C2.66699 8.22382 2.89085 7.99996 3.16699 7.99996H8.00033V3.16663C8.00033 2.89048 8.22418 2.66663 8.50033 2.66663Z" fill="#0B415B"/>
</svg>
