<svg width="16" height="16" viewBox="0 0 16 16" fill="none" xmlns="http://www.w3.org/2000/svg">
<path fill-rule="evenodd" clip-rule="evenodd" d="M8.50033 2.66675C8.77647 2.66675 9.00033 2.8906 9.00033 3.16675V8.00008H13.8337C14.1098 8.00008 14.3337 8.22394 14.3337 8.50008C14.3337 8.77622 14.1098 9.00008 13.8337 9.00008H9.00033V13.8334C9.00033 14.1095 8.77647 14.3334 8.50033 14.3334C8.22418 14.3334 8.00033 14.1095 8.00033 13.8334V9.00008H3.16699C2.89085 9.00008 2.66699 8.77622 2.66699 8.50008C2.66699 8.22394 2.89085 8.00008 3.16699 8.00008H8.00033V3.16675C8.00033 2.8906 8.22418 2.66675 8.50033 2.66675Z" fill="white"/>
</svg>
