<svg width="25" height="15" viewBox="0 0 25 15" fill="none" xmlns="http://www.w3.org/2000/svg">
<path fill-rule="evenodd" clip-rule="evenodd" d="M14.9359 1.34614C14.9359 0.836341 15.3491 0.423065 15.8589 0.423065H23.2435C23.7534 0.423065 24.1666 0.836341 24.1666 1.34614V8.73076C24.1666 9.24056 23.7534 9.65383 23.2435 9.65383C22.7337 9.65383 22.3205 9.24056 22.3205 8.73076V3.57465L14.0501 11.845C13.6896 12.2055 13.1052 12.2055 12.7447 11.845L8.47432 7.57465L1.74242 14.3065C1.38193 14.667 0.797473 14.667 0.436989 14.3065C0.076505 13.9461 0.076505 13.3616 0.436989 13.0011L7.8216 5.6165C8.18209 5.25602 8.76655 5.25602 9.12703 5.6165L13.3974 9.88687L21.015 2.26922H15.8589C15.3491 2.26922 14.9359 1.85594 14.9359 1.34614Z" fill="#51B349"/>
</svg>
