<svg width="25" height="15" viewBox="0 0 25 15" fill="none" xmlns="http://www.w3.org/2000/svg">
<path fill-rule="evenodd" clip-rule="evenodd" d="M15.1025 13.6522C15.1025 14.1618 15.5158 14.575 16.0256 14.575H23.4102C23.92 14.575 24.3333 14.1618 24.3333 13.6522V6.26955C24.3333 5.75988 23.92 5.34672 23.4102 5.34672C22.9004 5.34672 22.4871 5.75988 22.4871 6.26955V11.4243L14.2167 3.15614C13.8563 2.79576 13.2718 2.79576 12.9113 3.15614L8.64094 7.42534L1.90904 0.695271C1.54856 0.334886 0.964099 0.334886 0.603615 0.695271C0.243131 1.05566 0.243131 1.63996 0.603615 2.00034L7.98823 9.38295C8.34871 9.74334 8.93317 9.74334 9.29366 9.38295L13.564 5.11375L21.1817 12.7293H16.0256C15.5158 12.7293 15.1025 13.1425 15.1025 13.6522Z" fill="#CF593F"/>
</svg>
