<svg width="16" height="16" viewBox="0 0 16 16" fill="none" xmlns="http://www.w3.org/2000/svg">
<path opacity="0.15" d="M12 7C12 9.7614 9.7614 12 7 12C4.23857 12 2 9.7614 2 7C2 4.23857 4.23857 2 7 2C9.7614 2 12 4.23857 12 7Z" fill="#0E638C"/>
<path fill-rule="evenodd" clip-rule="evenodd" d="M2 7.5C2 4.46243 4.46243 2 7.5 2C10.5375 2 13 4.46243 13 7.5C13 8.83874 12.5217 10.0658 11.7266 11.0195L14.1869 13.4798C14.3821 13.675 14.3821 13.9916 14.1869 14.1869C13.9916 14.3821 13.675 14.3821 13.4798 14.1869L11.0195 11.7266C10.0658 12.5217 8.83874 13 7.5 13C4.46243 13 2 10.5375 2 7.5ZM7.5 3C5.01472 3 3 5.01472 3 7.5C3 9.98526 5.01472 12 7.5 12C9.98526 12 12 9.98526 12 7.5C12 5.01472 9.98526 3 7.5 3Z" fill="#0E638C"/>
</svg>
