<svg width="16" height="16" viewBox="0 0 16 16" fill="none" xmlns="http://www.w3.org/2000/svg">
<g clip-path="url(#clip0_3573_102)">
<path fill-rule="evenodd" clip-rule="evenodd" d="M8 7.2313L6 6.3993L4 7.2313L3.00001 6.81531V14.5999H13V6.8153L12 7.2313L10 6.3993L8 7.2313ZM10 5.09961L12 5.93161L14.0028 5.76512C14.0692 5.79158 14.1351 5.81721 14.2 5.84158V14.5999H15.2C15.5314 14.5999 15.8 14.8686 15.8 15.1999C15.8 15.5313 15.5314 15.7999 15.2 15.7999H0.800012C0.468641 15.7999 0.200012 15.5313 0.200012 15.1999C0.200012 14.8686 0.468641 14.5999 0.800012 14.5999H1.80001V5.63668C1.86492 5.61232 1.93077 6.32981 1.99722 5.63668L4 5.93161L6 5.09961L8 5.93161L10 5.09961Z" fill="#0E638C"/>
<path d="M4 9.59999C4 9.15815 4.35818 8.79999 4.8 8.79999H5.6C6.04182 8.79999 6.4 9.15815 6.4 9.59999V10.4C6.4 10.8418 6.04182 11.2 5.6 11.2H4.8C4.35818 11.2 4 10.8418 4 10.4V9.59999Z" fill="#0E638C"/>
<path fill-rule="evenodd" clip-rule="evenodd" d="M7.40002 11.2C7.40002 9.98496 8.38498 9 9.60002 9C10.8151 9 11.8 9.98496 11.8 11.2V15.8H7.40002V11.2ZM9.60002 10.2C9.0477 10.2 8.60002 10.6477 8.60002 11.2V14.6H10.6V11.2C10.6 10.6477 10.1523 10.2 9.60002 10.2Z" fill="#0E638C"/>
<path opacity="0.15" d="M1.925 1.51253C2.22175 1.06741 2.72132 0.800049 3.25628 0.800049H12.7437C13.2786 0.800049 13.7782 1.06741 14.0749 1.51253L15.0657 2.99851C15.1533 3.12992 15.2 3.28433 15.2 3.44227V5.56904C15.2 6.14797 14.6041 6.53522 14.0751 6.30009L13.4 6.00005L11.9249 6.65564C11.7181 6.74758 11.4819 6.74758 11.2751 6.65564L9.79999 6.00005L8.32487 6.65564C8.11807 6.74758 7.88193 6.74758 7.67508 6.65564L6.19999 6.00005L4.7249 6.65564C4.51804 6.74758 4.28193 6.74758 4.07508 6.65564L2.59999 6.00005L1.9249 6.30009C1.39587 6.53521 0.799988 6.14797 0.799988 5.56904V3.44227C0.799988 3.28433 0.84674 3.12992 0.934348 2.99851L1.925 1.51253Z" fill="#0E638C"/>
<path fill-rule="evenodd" clip-rule="evenodd" d="M1.4258 0.846355C1.83382 0.234322 2.52073 -0.133301 3.25631 -0.133301H12.7437C13.4793 -0.133301 14.1662 0.234322 14.5743 0.846355L15.5649 2.33234C15.7182 2.56232 15.8 2.83252 15.8 3.10892V5.23569C15.8 6.24881 14.7572 6.92649 13.8315 6.51503L13.4 6.32329L12.1686 6.87058C11.8067 7.03147 11.3934 7.03147 11.0315 6.87058L9.80001 6.32329L8.56857 6.87058C8.20665 7.03147 7.79341 7.03147 7.43142 6.87058L6.20001 6.32329L4.9686 6.87058C4.60661 7.03147 4.19341 7.03147 3.83142 6.87058L2.60001 6.32329L2.1686 6.51503C1.2428 6.92649 0.200012 6.24881 0.200012 5.23569V3.10892C0.200012 2.83252 0.281825 2.56232 0.435142 2.33234L1.4258 0.846355ZM3.25631 1.0667C2.92196 1.0667 2.60972 1.2338 2.42425 1.512L1.4336 2.99798C1.4117 3.03084 1.40001 3.06944 1.40001 3.10892V5.23569C1.40001 5.38042 1.54898 5.47723 1.68124 5.41845L2.60001 5.01011L4.31879 5.77401C4.3705 5.79699 4.42952 5.79699 4.48124 5.77401L6.20001 5.01011L7.91879 5.77401C7.9705 5.79699 8.02953 5.79699 8.08121 5.77401L9.80001 5.01011L11.5188 5.77401C11.5705 5.79699 11.6295 5.79699 11.6812 5.77401L13.4 5.01011L14.3188 5.41845C14.4511 5.47723 14.6 5.38042 14.6 5.23569V3.10892C14.6 3.06944 14.5883 3.03084 14.5664 2.99798L13.5758 1.512C13.3903 1.2338 13.0781 1.0667 12.7437 1.0667H3.25631Z" fill="#0E638C"/>
</g>
<defs>
<clipPath id="clip0_3573_102">
<rect width="16" height="16" fill="white"/>
</clipPath>
</defs>
</svg>
