<svg width="16" height="16" viewBox="0 0 16 16" fill="none" xmlns="http://www.w3.org/2000/svg">
<g clip-path="url(#clip0_374_9333)">
<path fill-rule="evenodd" clip-rule="evenodd" d="M8.00019 7.2313L6.00019 6.3993L4.00019 7.2313L3.0002 6.81531V14.5999H13.0002V6.8153L12.0002 7.2313L10.0002 6.3993L8.00019 7.2313ZM10.0002 5.09961L12.0002 5.93161L14.003 5.76512C14.0694 5.79158 14.1353 5.81721 14.2002 5.84158V14.5999H15.2002C15.5316 14.5999 15.8002 14.8686 15.8002 15.1999C15.8002 15.5313 15.5316 15.7999 15.2002 15.7999H0.800195C0.468824 15.7999 0.200195 15.5313 0.200195 15.1999C0.200195 14.8686 0.468824 14.5999 0.800195 14.5999H1.8002V5.63668C1.8651 5.61232 1.93096 6.32981 1.9974 5.63668L4.00019 5.93161L6.00019 5.09961L8.00019 5.93161L10.0002 5.09961Z" fill="#DC8400"/>
<path d="M4 9.59999C4 9.15815 4.35818 8.79999 4.8 8.79999H5.6C6.04182 8.79999 6.4 9.15815 6.4 9.59999V10.4C6.4 10.8418 6.04182 11.2 5.6 11.2H4.8C4.35818 11.2 4 10.8418 4 10.4V9.59999Z" fill="#DC8400"/>
<path fill-rule="evenodd" clip-rule="evenodd" d="M7.3999 11.2C7.3999 9.98496 8.38486 9 9.5999 9C10.8149 9 11.7999 9.98496 11.7999 11.2V15.8H7.3999V11.2ZM9.5999 10.2C9.04758 10.2 8.5999 10.6477 8.5999 11.2V14.6H10.5999V11.2C10.5999 10.6477 10.1522 10.2 9.5999 10.2Z" fill="#DC8400"/>
<path opacity="0.15" d="M1.92482 1.51247C2.22156 1.06735 2.72113 0.799988 3.2561 0.799988H12.7435C13.2784 0.799988 13.778 1.06735 14.0748 1.51247L15.0655 2.99845C15.1531 3.12986 15.1998 3.28427 15.1998 3.44221V5.56898C15.1998 6.14791 14.6039 6.53516 14.0749 6.30003L13.3998 5.99999L11.9247 6.65558C11.7179 6.74752 11.4817 6.74752 11.2749 6.65558L9.7998 5.99999L8.32469 6.65558C8.11789 6.74752 7.88175 6.74752 7.67489 6.65558L6.1998 5.99999L4.72472 6.65558C4.51786 6.74752 4.28175 6.74752 4.07489 6.65558L2.5998 5.99999L1.92472 6.30003C1.39568 6.53515 0.799805 6.14791 0.799805 5.56898V3.44221C0.799805 3.28427 0.846557 3.12986 0.934165 2.99845L1.92482 1.51247Z" fill="#DC8400"/>
<path fill-rule="evenodd" clip-rule="evenodd" d="M1.42598 0.846355C1.834 0.234322 2.52092 -0.133301 3.25649 -0.133301H12.7439C13.4795 -0.133301 14.1664 0.234322 14.5744 0.846355L15.5651 2.33234C15.7184 2.56232 15.8002 2.83252 15.8002 3.10892V5.23569C15.8002 6.24881 14.7574 6.92649 13.8316 6.51503L13.4002 6.32329L12.1688 6.87058C11.8068 7.03147 11.3936 7.03147 11.0316 6.87058L9.8002 6.32329L8.56876 6.87058C8.20683 7.03147 7.7936 7.03147 7.4316 6.87058L6.20019 6.32329L4.96879 6.87058C4.6068 7.03147 4.1936 7.03147 3.8316 6.87058L2.6002 6.32329L2.16879 6.51503C1.24299 6.92649 0.200195 6.24881 0.200195 5.23569V3.10892C0.200195 2.83252 0.282008 2.56232 0.435325 2.33234L1.42598 0.846355ZM3.25649 1.0667C2.92214 1.0667 2.60991 1.2338 2.42444 1.512L1.43379 2.99798C1.41188 3.03084 1.4002 3.06944 1.4002 3.10892V5.23569C1.4002 5.38042 1.54916 5.47723 1.68142 5.41845L2.6002 5.01011L4.31897 5.77401C4.37068 5.79699 4.42971 5.79699 4.48142 5.77401L6.20019 5.01011L7.91897 5.77401C7.97068 5.79699 8.02971 5.79699 8.08139 5.77401L9.8002 5.01011L11.519 5.77401C11.5707 5.79699 11.6297 5.79699 11.6814 5.77401L13.4002 5.01011L14.319 5.41845C14.4512 5.47723 14.6002 5.38042 14.6002 5.23569V3.10892C14.6002 3.06944 14.5885 3.03084 14.5666 2.99798L13.576 1.512C13.3905 1.2338 13.0783 1.0667 12.7439 1.0667H3.25649Z" fill="#DC8400"/>
</g>
<defs>
<clipPath id="clip0_374_9333">
<rect width="16" height="16" fill="white"/>
</clipPath>
</defs>
</svg>
