<svg width="16" height="16" viewBox="0 0 16 16" fill="none" xmlns="http://www.w3.org/2000/svg">
<path opacity="0.15" d="M8 11.3333L4 13.3333L5 9.33333L2 6L6.33333 5.66667L8 2L9.66667 5.66667L14 6L11 9.33333L12 13.3333L8 11.3333Z" fill="#DC8400"/>
<path fill-rule="evenodd" clip-rule="evenodd" d="M8.50001 2C8.69608 2 8.87406 2.1146 8.95519 2.2931L10.4996 5.6908L14.5384 6.00147C14.7283 6.01608 14.8935 6.13738 14.9642 6.31426C15.035 6.49114 14.9991 6.69287 14.8717 6.83448L12.0496 9.97011L12.9851 13.7121C13.0324 13.9015 12.9652 14.1012 12.8129 14.2234C12.6606 14.3455 12.4511 14.3679 12.2764 14.2805L8.50001 12.3924L4.72362 14.2805C4.54897 14.3679 4.33946 14.3455 4.18715 14.2234C4.03483 14.1012 3.96758 13.9015 4.01494 13.7121L4.95043 9.97011L2.12836 6.83448C2.00091 6.69287 1.96502 6.49114 2.03579 6.31426C2.10656 6.13738 2.27171 6.01608 2.46166 6.00147L6.50042 5.6908L8.04483 2.2931C8.12596 2.1146 8.30394 2 8.50001 2ZM8.50001 3.7083L7.28853 6.37357C7.21311 6.53948 7.0534 6.65122 6.87169 6.66519L3.55124 6.92061L5.87166 9.49885C5.9829 9.62245 6.02541 9.79327 5.98508 9.9546L5.24874 12.8999L8.2764 11.3861C8.41717 11.3157 8.58285 11.3157 8.72362 11.3861L11.7513 12.8999L11.0149 9.9546C10.9746 9.79327 11.0171 9.62245 11.1284 9.49885L13.4488 6.92061L10.1283 6.66519C9.94662 6.65122 9.78691 6.53948 9.71149 6.37357L8.50001 3.7083Z" fill="#DC8400"/>
</svg>
