<svg width="13" height="13" viewBox="0 0 13 13" fill="none" xmlns="http://www.w3.org/2000/svg">
<path fill-rule="evenodd" clip-rule="evenodd" d="M6.5 1C3.46244 1 1 3.46244 1 6.5C1 9.53759 3.46243 12 6.5 12C9.53759 12 12 9.53759 12 6.5C12 3.46243 9.53759 1 6.5 1ZM0 6.5C0 2.91015 2.91015 0 6.5 0C10.0899 0 13 2.91015 13 6.5C13 10.0899 10.0899 13 6.5 13C2.91015 13 0 10.0899 0 6.5ZM10.187 4.14645C10.3822 4.34171 10.3822 4.6583 10.187 4.85356L5.52022 9.52022C5.32496 9.71548 5.00837 9.71548 4.81311 9.52022L2.81311 7.52022C2.61785 7.32496 2.61785 7.00838 2.81311 6.81311C3.00838 6.61785 3.32496 6.61785 3.52022 6.81311L5.16667 8.45956L9.47985 4.14644C9.67511 3.95118 9.9917 3.95119 10.187 4.14645Z" fill="#51B349"/>
</svg>
