<svg width="24" height="24" viewBox="0 0 24 24" fill="none" xmlns="http://www.w3.org/2000/svg">
<path opacity="0.15" d="M18 18V6H6V18C6 19.1046 6.89543 20 8 20H16C17.1046 20 18 19.1046 18 18Z" fill="#798A97"/>
<path fill-rule="evenodd" clip-rule="evenodd" d="M9 5.75C9 4.23122 10.2312 3 11.75 3H13.75C15.2688 3 16.5 4.23122 16.5 5.75V6H20.75C21.1642 6 21.5 6.33579 21.5 6.75C21.5 7.16421 21.1642 7.5 20.75 7.5H19.5V18.75C19.5 20.2688 18.2688 21.5 16.75 21.5H8.75C7.23122 21.5 6 20.2688 6 18.75V7.5H4.75C4.33579 7.5 4 7.16421 4 6.75C4 6.33579 4.33579 6 4.75 6H9V5.75ZM7.5 7.5V18.75C7.5 19.4404 8.05964 20 8.75 20H16.75C17.4404 20 18 19.4404 18 18.75V7.5H7.5ZM15 6H10.5V5.75C10.5 5.05964 11.0596 4.5 11.75 4.5H13.75C14.4404 4.5 15 5.05964 15 5.75V6ZM10.75 10C11.1642 10 11.5 10.3358 11.5 10.75V16.75C11.5 17.1642 11.1642 17.5 10.75 17.5C10.3358 17.5 10 17.1642 10 16.75V10.75C10 10.3358 10.3358 10 10.75 10ZM14.75 10C15.1642 10 15.5 10.3358 15.5 10.75V16.75C15.5 17.1642 15.1642 17.5 14.75 17.5C14.3358 17.5 14 17.1642 14 16.75V10.75C14 10.3358 14.3358 10 14.75 10Z" fill="#CF593F"/>
</svg>
