<svg width="25" height="24" viewBox="0 0 25 24" fill="none" xmlns="http://www.w3.org/2000/svg">
<path d="M21.3804 6.6398C21.242 6.4423 21.058 6.28104 20.8441 6.16967C20.6302 6.0583 20.3926 6.0001 20.1515 6H16.417V3.75C16.4165 3.35231 16.2584 2.97104 15.9772 2.68983C15.696 2.40863 15.3147 2.25045 14.917 2.25H2.91699C2.5193 2.25045 2.13803 2.40863 1.85683 2.68983C1.57562 2.97104 1.41744 3.35231 1.41699 3.75V19.125H3.90521C4.03699 19.8611 4.42341 20.5273 4.99685 21.0072C5.5703 21.4871 6.29424 21.7501 7.04199 21.7501C7.78975 21.7501 8.51369 21.4871 9.08713 21.0072C9.66057 20.5273 10.047 19.8611 10.1788 19.125H15.1552C15.287 19.8611 15.6734 20.5273 16.2469 21.0072C16.8203 21.4871 17.5442 21.7501 18.292 21.7501C19.0397 21.7501 19.7637 21.4871 20.3371 21.0072C20.9106 20.5273 21.297 19.8611 21.4288 19.125H23.917V10.6182C23.9174 10.3873 23.8463 10.162 23.7136 9.97308L21.3804 6.6398ZM2.91605 3.75H14.917V12H2.91699L2.91605 3.75ZM7.04199 20.25C6.70824 20.25 6.38198 20.151 6.10447 19.9656C5.82696 19.7802 5.61067 19.5166 5.48295 19.2083C5.35522 18.8999 5.3218 18.5606 5.38692 18.2333C5.45203 17.9059 5.61275 17.6053 5.84875 17.3693C6.08475 17.1333 6.38543 16.9725 6.71278 16.9074C7.04012 16.8423 7.37942 16.8757 7.68777 17.0035C7.99612 17.1312 8.25967 17.3475 8.4451 17.625C8.63052 17.9025 8.72949 18.2287 8.72949 18.5625C8.729 19.0099 8.55105 19.4388 8.23469 19.7552C7.91833 20.0716 7.48939 20.2495 7.04199 20.25ZM18.292 20.25C17.9582 20.25 17.632 20.151 17.3545 19.9656C17.077 19.7802 16.8607 19.5166 16.7329 19.2083C16.6052 18.8999 16.5718 18.5606 16.6369 18.2333C16.702 17.9059 16.8627 17.6053 17.0987 17.3693C17.3348 17.1333 17.6354 16.9725 17.9628 16.9074C18.2901 16.8423 18.6294 16.8757 18.9378 17.0035C19.2461 17.1312 19.5097 17.3475 19.6951 17.625C19.8805 17.9025 19.9795 18.2287 19.9795 18.5625C19.979 19.0099 19.801 19.4388 19.4847 19.7552C19.1683 20.0716 18.7394 20.2495 18.292 20.25ZM22.417 17.625H21.3386C21.1381 16.9734 20.7341 16.4033 20.1858 15.9983C19.6374 15.5933 18.9737 15.3747 18.292 15.3747C17.6103 15.3747 16.9466 15.5933 16.3982 15.9983C15.8499 16.4033 15.4458 16.9734 15.2454 17.625H10.0886C9.88814 16.9734 9.48409 16.4033 8.93576 15.9983C8.38742 15.5933 7.72368 15.3747 7.04199 15.3747C6.3603 15.3747 5.69656 15.5933 5.14823 15.9983C4.59989 16.4033 4.19584 16.9734 3.9954 17.625H2.91699V13.5H22.417V17.625ZM22.417 12H16.417V7.5H20.1515L22.417 10.7364V12Z" fill="#798A97"/>
</svg>
