<svg width="24" height="24" viewBox="0 0 24 24" fill="none" xmlns="http://www.w3.org/2000/svg">
<path d="M20.7134 6.6398C20.575 6.4423 20.391 6.28104 20.1771 6.16967C19.9632 6.0583 19.7256 6.0001 19.4845 6H15.75V3.75C15.7496 3.35231 15.5914 2.97104 15.3102 2.68983C15.029 2.40863 14.6477 2.25045 14.25 2.25H2.25C1.85231 2.25045 1.47104 2.40863 1.18983 2.68983C0.908625 2.97104 0.750447 3.35231 0.75 3.75V19.125H3.23822C3.37 19.8611 3.75642 20.5273 4.32986 21.0072C4.9033 21.4871 5.62725 21.7501 6.375 21.7501C7.12275 21.7501 7.8467 21.4871 8.42014 21.0072C8.99358 20.5273 9.38 19.8611 9.51178 19.125H14.4882C14.62 19.8611 15.0064 20.5273 15.5799 21.0072C16.1533 21.4871 16.8772 21.7501 17.625 21.7501C18.3728 21.7501 19.0967 21.4871 19.6701 21.0072C20.2436 20.5273 20.63 19.8611 20.7618 19.125H23.25V10.6182C23.2504 10.3873 23.1793 10.162 23.0467 9.97308L20.7134 6.6398ZM2.24906 3.75H14.25V12H2.25L2.24906 3.75ZM6.375 20.25C6.04124 20.25 5.71498 20.151 5.43748 19.9656C5.15997 19.7802 4.94368 19.5166 4.81595 19.2083C4.68823 18.8999 4.65481 18.5606 4.71992 18.2333C4.78504 17.9059 4.94576 17.6053 5.18176 17.3693C5.41776 17.1333 5.71844 16.9725 6.04578 16.9074C6.37313 16.8423 6.71243 16.8757 7.02078 17.0035C7.32913 17.1312 7.59268 17.3475 7.7781 17.625C7.96353 17.9025 8.0625 18.2287 8.0625 18.5625C8.062 19.0099 7.88405 19.4388 7.56769 19.7552C7.25133 20.0716 6.8224 20.2495 6.375 20.25ZM17.625 20.25C17.2912 20.25 16.965 20.151 16.6875 19.9656C16.41 19.7802 16.1937 19.5166 16.066 19.2083C15.9382 18.8999 15.9048 18.5606 15.9699 18.2333C16.035 17.9059 16.1958 17.6053 16.4318 17.3693C16.6678 17.1333 16.9684 16.9725 17.2958 16.9074C17.6231 16.8423 17.9624 16.8757 18.2708 17.0035C18.5791 17.1312 18.8427 17.3475 19.0281 17.625C19.2135 17.9025 19.3125 18.2287 19.3125 18.5625C19.312 19.0099 19.1341 19.4388 18.8177 19.7552C18.5013 20.0716 18.0724 20.2495 17.625 20.25ZM21.75 17.625H20.6716C20.4712 16.9734 20.0671 16.4033 19.5188 15.9983C18.9704 15.5933 18.3067 15.3747 17.625 15.3747C16.9433 15.3747 16.2796 15.5933 15.7312 15.9983C15.1829 16.4033 14.7788 16.9734 14.5784 17.625H9.42159C9.22115 16.9734 8.8171 16.4033 8.26877 15.9983C7.72043 15.5933 7.05669 15.3747 6.375 15.3747C5.69331 15.3747 5.02957 15.5933 4.48123 15.9983C3.9329 16.4033 3.52885 16.9734 3.32841 17.625H2.25V13.5H21.75V17.625ZM21.75 12H15.75V7.5H19.4845L21.75 10.7364V12Z" fill="#0E638C"/>
</svg>
