<svg width="25" height="24" viewBox="0 0 25 24" fill="none" xmlns="http://www.w3.org/2000/svg">
<path opacity="0.15" d="M12.2021 11C14.4112 11 16.2021 9.20914 16.2021 7C16.2021 4.79086 14.4112 3 12.2021 3C9.99301 3 8.20215 4.79086 8.20215 7C8.20215 9.20914 9.99301 11 12.2021 11Z" fill="#0E638C"/>
<path fill-rule="evenodd" clip-rule="evenodd" d="M4.20215 19.75C4.20215 17.1267 6.32879 15 8.95215 15H16.9521C19.5755 15 21.7021 17.1267 21.7021 19.75V21.75C21.7021 22.1642 21.3664 22.5 20.9521 22.5H4.95215C4.53793 22.5 4.20215 22.1642 4.20215 21.75V19.75ZM8.95215 16.5C7.15723 16.5 5.70215 17.9551 5.70215 19.75V21H20.2021V19.75C20.2021 17.9551 18.747 16.5 16.9521 16.5H8.95215Z" fill="#0E638C"/>
<path fill-rule="evenodd" clip-rule="evenodd" d="M8.20215 7.75C8.20215 5.12665 10.3288 3 12.9521 3C15.5755 3 17.7021 5.12664 17.7021 7.75C17.7021 10.3734 15.5755 12.5 12.9521 12.5C10.3288 12.5 8.20215 10.3734 8.20215 7.75ZM12.9521 4.5C11.1572 4.5 9.70215 5.95507 9.70215 7.75C9.70215 9.54493 11.1572 11 12.9521 11C14.747 11 16.2021 9.54492 16.2021 7.75C16.2021 5.95508 14.747 4.5 12.9521 4.5Z" fill="#0E638C"/>
</svg>
