<svg width="16" height="16" viewBox="0 0 16 16" fill="none" xmlns="http://www.w3.org/2000/svg">
<g opacity="0.15">
<path d="M2.3335 9H7.00016V13.6667H2.3335V9Z" fill="#FFB229"/>
<path d="M9 2.33337H13.6667V7.00004H9V2.33337Z" fill="#FFB229"/>
<path d="M9 9H13.6667V13.6667H9V9Z" fill="#FFB229"/>
</g>
<path fill-rule="evenodd" clip-rule="evenodd" d="M2.3335 2.83337C2.3335 2.55723 2.55735 2.33337 2.8335 2.33337H7.50016C7.7763 2.33337 8.00016 2.55723 8.00016 2.83337V7.50004C8.00016 7.77618 7.7763 8.00004 7.50016 8.00004H2.8335C2.55735 8.00004 2.3335 7.77618 2.3335 7.50004V2.83337ZM3.3335 3.33337V7.00004H7.00016V3.33337H3.3335Z" fill="#FFB229"/>
<path fill-rule="evenodd" clip-rule="evenodd" d="M2.3335 9.5C2.3335 9.22386 2.55735 9 2.8335 9H7.50016C7.7763 9 8.00016 9.22386 8.00016 9.5V14.1667C8.00016 14.4428 7.7763 14.6667 7.50016 14.6667H2.8335C2.55735 14.6667 2.3335 14.4428 2.3335 14.1667V9.5ZM3.3335 10V13.6667H7.00016V10H3.3335Z" fill="#FFB229"/>
<path fill-rule="evenodd" clip-rule="evenodd" d="M9 2.83337C9 2.55723 9.22386 2.33337 9.5 2.33337H14.1667C14.4428 2.33337 14.6667 2.55723 14.6667 2.83337V7.50004C14.6667 7.77618 14.4428 8.00004 14.1667 8.00004H9.5C9.22386 8.00004 9 7.77618 9 7.50004V2.83337ZM10 3.33337V7.00004H13.6667V3.33337H10Z" fill="#FFB229"/>
<path fill-rule="evenodd" clip-rule="evenodd" d="M9 9.5C9 9.22386 9.22386 9 9.5 9H14.1667C14.4428 9 14.6667 9.22386 14.6667 9.5V14.1667C14.6667 14.4428 14.4428 14.6667 14.1667 14.6667H9.5C9.22386 14.6667 9 14.4428 9 14.1667V9.5ZM10 10V13.6667H13.6667V10H10Z" fill="#FFB229"/>
</svg>
