<svg width="13" height="13" viewBox="0 0 13 13" fill="none" xmlns="http://www.w3.org/2000/svg">
<path fill-rule="evenodd" clip-rule="evenodd" d="M6.5 1C3.46244 1 1 3.46244 1 6.5C1 9.53759 3.46243 12 6.5 12C9.53759 12 12 9.53759 12 6.5C12 3.46243 9.53759 1 6.5 1ZM0 6.5C0 2.91015 2.91015 0 6.5 0C10.0899 0 13 2.91015 13 6.5C13 10.0899 10.0899 13 6.5 13C2.91015 13 0 10.0899 0 6.5ZM6.5 2.66667C6.77614 2.66667 7 2.89052 7 3.16667V7.83333C7 8.10948 6.77614 8.33333 6.5 8.33333C6.22386 8.33333 6 8.10948 6 7.83333V3.16667C6 2.89052 6.22386 2.66667 6.5 2.66667ZM6.5 9.32667C6.77614 9.32667 7 9.55052 7 9.82667V9.83333C7 10.1095 6.77614 10.3333 6.5 10.3333C6.22386 10.3333 6 10.1095 6 9.83333V9.82667C6 9.55052 6.22386 9.32667 6.5 9.32667Z" fill="#CF593F"/>
</svg>
