<svg width="24" height="24" viewBox="0 0 24 24" fill="none" xmlns="http://www.w3.org/2000/svg">
<path d="M23.044 9.80801H11.9414V14.4093H18.3307C17.736 17.3333 15.2467 19.0133 11.9414 19.0133C11.0165 19.0149 10.1004 18.8339 9.24559 18.4806C8.39082 18.1274 7.6142 17.6089 6.96027 16.9548C6.30633 16.3008 5.78796 15.524 5.43487 14.6692C5.08178 13.8144 4.90093 12.8982 4.90268 11.9733C4.9011 11.0486 5.08209 10.1326 5.43525 9.27789C5.78842 8.4232 6.30682 7.64664 6.96074 6.99272C7.61465 6.33881 8.39122 5.82041 9.2459 5.46724C10.1006 5.11407 11.0166 4.93309 11.9414 4.93467C13.62 4.93467 15.1374 5.53067 16.328 6.50534L19.7947 3.04001C17.6827 1.19867 14.9747 0.0626728 11.9414 0.0626728C10.3758 0.0580966 8.82471 0.363086 7.37742 0.960099C5.93012 1.55711 4.61513 2.43437 3.50809 3.54141C2.40105 4.64846 1.52379 5.96344 0.926778 7.41074C0.329765 8.85803 0.0247754 10.4091 0.0293516 11.9747C0.0245984 13.5403 0.329467 15.0914 0.926417 16.5388C1.52337 17.9862 2.40062 19.3012 3.5077 20.4083C4.61478 21.5154 5.92983 22.3927 7.37721 22.9896C8.82458 23.5866 10.3757 23.8914 11.9414 23.8867C17.8974 23.8867 23.3134 19.5547 23.3134 11.9747C23.3134 11.2707 23.2054 10.512 23.044 9.80801Z" fill="black"/>
</svg>
