<svg width="32" height="32" viewBox="0 0 32 32" fill="none" xmlns="http://www.w3.org/2000/svg">
<path d="M15.9983 9.836C14.3632 9.836 12.795 10.4856 11.6388 11.6418C10.4826 12.798 9.83301 14.3662 9.83301 16.0013C9.83301 17.6365 10.4826 19.2047 11.6388 20.3609C12.795 21.5171 14.3632 22.1667 15.9983 22.1667C17.6335 22.1667 19.2017 21.5171 20.3579 20.3609C21.5141 19.2047 22.1637 17.6365 22.1637 16.0013C22.1637 14.3662 21.5141 12.798 20.3579 11.6418C19.2017 10.4856 17.6335 9.836 15.9983 9.836ZM15.9983 20.0053C14.9361 20.0053 13.9173 19.5833 13.1661 18.8322C12.415 18.081 11.993 17.0623 11.993 16C11.993 14.9377 12.415 13.9189 13.1661 13.1678C13.9173 12.4167 14.9361 11.9947 15.9983 11.9947C17.0606 11.9947 18.0794 12.4167 18.8305 13.1678C19.5817 13.9189 20.0037 14.9377 20.0037 16C20.0037 17.0623 19.5817 18.081 18.8305 18.8322C18.0794 19.5833 17.0606 20.0053 15.9983 20.0053Z" fill="black"/>
<path d="M22.408 11.0467C23.2019 11.0467 23.8454 10.4031 23.8454 9.60933C23.8454 8.81551 23.2019 8.172 22.408 8.172C21.6142 8.172 20.9707 8.81551 20.9707 9.60933C20.9707 10.4031 21.6142 11.0467 22.408 11.0467Z" fill="black"/>
<path d="M27.3776 8.148C27.0689 7.35091 26.5972 6.62704 25.9927 6.02275C25.3882 5.41845 24.6641 4.94703 23.8669 4.63867C22.934 4.28848 21.9485 4.09912 20.9523 4.07867C19.6683 4.02267 19.2616 4.00667 16.0056 4.00667C12.7496 4.00667 12.3323 4.00667 11.0589 4.07867C10.0634 4.09808 9.07861 4.28747 8.14693 4.63867C7.34951 4.94667 6.62528 5.41796 6.02071 6.02231C5.41613 6.62665 4.94457 7.3507 4.63626 8.148C4.286 9.08082 4.09708 10.0665 4.0776 11.0627C4.02026 12.3453 4.00293 12.752 4.00293 16.0093C4.00293 19.2653 4.00293 19.68 4.0776 20.956C4.0976 21.9533 4.2856 22.9373 4.63626 23.872C4.94543 24.669 5.41746 25.3928 6.02218 25.997C6.6269 26.6013 7.35101 27.0728 8.14826 27.3813C9.07817 27.7456 10.0634 27.9485 11.0616 27.9813C12.3456 28.0373 12.7523 28.0547 16.0083 28.0547C19.2643 28.0547 19.6816 28.0547 20.9549 27.9813C21.9511 27.9611 22.9366 27.7722 23.8696 27.4227C24.6666 27.1136 25.3904 26.6418 25.9949 26.0373C26.5994 25.4328 27.0712 24.709 27.3803 23.912C27.7309 22.9787 27.9189 21.9947 27.9389 20.9973C27.9963 19.7147 28.0136 19.308 28.0136 16.0507C28.0136 12.7933 28.0136 12.38 27.9389 11.104C27.9234 10.0937 27.7335 9.09367 27.3776 8.148ZM25.7536 20.8573C25.745 21.6257 25.6047 22.387 25.3389 23.108C25.1387 23.6265 24.8322 24.0973 24.439 24.4902C24.0459 24.8831 23.5749 25.1894 23.0563 25.3893C22.3432 25.6539 21.5901 25.7942 20.8296 25.804C19.5629 25.8627 19.2056 25.8773 15.9576 25.8773C12.7069 25.8773 12.3749 25.8773 11.0843 25.804C10.3242 25.7947 9.57136 25.6544 8.85893 25.3893C8.33851 25.1906 7.8656 24.8849 7.47078 24.4919C7.07597 24.099 6.76804 23.6275 6.56693 23.108C6.30486 22.3947 6.16468 21.6425 6.15226 20.8827C6.09493 19.616 6.0816 19.2587 6.0816 16.0107C6.0816 12.7613 6.0816 12.4293 6.15226 11.1373C6.16088 10.3694 6.30114 9.60856 6.56693 8.888C6.9736 7.836 7.80693 7.008 8.85893 6.60533C9.57172 6.34152 10.3243 6.20129 11.0843 6.19067C12.3523 6.13333 12.7083 6.11733 15.9576 6.11733C19.2069 6.11733 19.5403 6.11733 20.8296 6.19067C21.5901 6.19982 22.3434 6.3401 23.0563 6.60533C23.5748 6.8057 24.0458 7.11227 24.4389 7.50537C24.832 7.89848 25.1386 8.36943 25.3389 8.888C25.601 9.60127 25.7412 10.3535 25.7536 11.1133C25.8109 12.3813 25.8256 12.7373 25.8256 15.9867C25.8256 19.2347 25.8256 19.584 25.7683 20.8587H25.7536V20.8573Z" fill="black"/>
</svg>
